<svg id="svg" version="1.1" xmlns="http://www.w3.org/2000/svg" xmlns:xlink="http://www.w3.org/1999/xlink" width="400" height="355.46875" viewBox="0, 0, 400,355.46875"><g id="svgg"><path id="path0" d="M11.022 3.200 C 10.729 3.390,10.627 3.547,10.795 3.550 C 11.167 3.557,8.470 6.025,8.077 6.036 C 7.925 6.041,7.225 5.804,6.523 5.511 C 4.459 4.649,3.296 4.799,3.041 5.959 C 2.753 7.269,2.887 10.651,3.235 10.866 C 3.387 10.960,3.451 11.354,3.376 11.741 C 3.302 12.128,3.387 12.444,3.565 12.444 C 3.743 12.444,3.790 12.701,3.670 13.014 C 3.550 13.327,3.600 13.687,3.780 13.814 C 3.961 13.941,4.391 14.959,4.735 16.078 C 5.080 17.196,5.754 18.997,6.233 20.080 C 6.712 21.162,7.117 22.167,7.133 22.313 C 7.149 22.459,7.361 22.818,7.604 23.111 C 7.848 23.404,8.581 24.764,9.234 26.133 C 9.887 27.502,10.847 29.182,11.367 29.867 C 11.888 30.551,12.750 31.871,13.283 32.800 C 13.816 33.729,14.405 34.489,14.593 34.489 C 14.780 34.489,14.914 34.609,14.891 34.756 C 14.779 35.467,15.015 35.938,15.952 36.875 C 16.512 37.435,17.236 38.407,17.561 39.036 C 17.886 39.664,18.317 40.178,18.519 40.178 C 18.721 40.178,18.787 40.339,18.665 40.536 C 18.543 40.733,18.685 40.986,18.980 41.100 C 19.275 41.213,20.192 42.212,21.019 43.319 C 21.846 44.427,22.974 45.748,23.528 46.254 C 24.081 46.760,24.533 47.332,24.533 47.524 C 24.533 47.716,25.168 48.406,25.944 49.057 C 26.719 49.707,27.287 50.347,27.206 50.479 C 27.008 50.799,28.328 51.909,28.592 51.645 C 28.706 51.531,28.800 51.686,28.800 51.989 C 28.800 52.293,30.600 54.399,32.800 56.670 C 38.032 62.069,37.770 61.734,37.353 62.482 C 37.160 62.828,36.678 63.861,36.280 64.778 C 35.883 65.695,35.409 66.537,35.228 66.649 C 35.047 66.761,34.792 67.342,34.661 67.939 C 34.529 68.537,34.202 69.449,33.934 69.966 C 33.666 70.483,33.114 72.432,32.708 74.297 C 32.302 76.163,31.805 77.986,31.603 78.348 C 31.325 78.848,31.343 78.942,31.673 78.738 C 31.981 78.548,32.019 78.615,31.800 78.967 C 31.630 79.242,31.484 79.787,31.476 80.178 C 31.468 80.569,31.333 81.089,31.177 81.333 C 31.006 81.599,31.060 81.778,31.311 81.778 C 31.598 81.778,31.620 81.919,31.379 82.222 C 30.945 82.771,30.904 90.251,31.335 90.517 C 31.507 90.623,31.561 91.198,31.456 91.793 C 31.351 92.389,31.415 93.059,31.599 93.283 C 31.782 93.506,32.029 94.302,32.146 95.050 C 32.264 95.799,32.547 96.759,32.774 97.184 C 33.001 97.608,33.147 97.956,33.098 97.956 C 32.541 97.956,34.559 102.680,36.060 104.889 C 36.658 105.769,37.149 106.618,37.151 106.776 C 37.154 106.934,37.556 107.370,38.044 107.746 C 38.533 108.121,38.788 108.432,38.611 108.437 C 38.232 108.446,40.231 110.221,40.622 110.222 C 40.769 110.222,40.849 110.342,40.800 110.489 C 40.751 110.636,40.871 110.817,41.067 110.892 C 41.262 110.967,41.621 111.312,41.864 111.659 C 42.106 112.006,43.066 112.649,43.997 113.088 C 44.927 113.528,45.969 114.127,46.311 114.421 C 46.653 114.715,46.936 114.810,46.939 114.633 C 46.942 114.456,47.078 114.522,47.241 114.779 C 47.404 115.037,47.762 115.292,48.036 115.348 C 48.309 115.403,48.773 115.540,49.067 115.653 C 50.082 116.042,52.095 116.563,53.511 116.804 C 55.139 117.080,65.598 117.094,67.307 116.822 C 67.933 116.723,69.164 116.553,70.044 116.446 C 72.277 116.173,72.661 116.098,73.067 115.858 C 73.262 115.742,73.702 115.693,74.044 115.748 C 74.387 115.803,74.668 115.742,74.669 115.613 C 74.670 115.484,75.297 115.355,76.062 115.326 C 76.827 115.298,77.906 115.030,78.460 114.732 C 79.598 114.118,80.605 113.727,81.498 113.551 C 82.622 113.329,85.689 111.870,85.689 111.557 C 85.689 111.386,85.849 111.346,86.044 111.467 C 86.240 111.588,86.400 111.517,86.400 111.310 C 86.400 111.103,86.610 110.933,86.866 110.933 C 87.123 110.933,87.690 110.600,88.128 110.193 C 89.012 109.369,88.890 109.319,91.603 111.634 C 93.630 113.364,97.436 116.709,97.966 117.228 C 98.207 117.463,98.485 117.574,98.583 117.476 C 98.682 117.377,99.263 117.904,99.875 118.647 C 100.487 119.389,100.866 120.025,100.716 120.060 C 100.567 120.094,89.724 120.204,76.622 120.305 C 53.955 120.478,45.783 120.644,38.578 121.078 C 36.818 121.184,34.178 121.343,32.711 121.432 C 31.244 121.521,28.844 121.703,27.378 121.837 C 25.911 121.971,24.591 122.053,24.444 122.018 C 24.298 121.984,24.178 122.088,24.178 122.250 C 24.178 122.411,22.909 122.738,21.359 122.975 C 16.174 123.769,14.941 124.839,16.184 127.467 C 17.188 129.588,17.239 130.192,16.525 131.571 C 15.191 134.151,15.196 134.330,16.631 135.258 C 17.359 135.729,18.596 136.204,19.378 136.314 C 20.160 136.424,21.402 136.597,22.139 136.700 C 25.791 137.209,32.245 137.629,39.467 137.828 C 43.867 137.949,47.667 138.207,47.911 138.401 C 48.222 138.648,48.357 138.607,48.361 138.266 C 48.364 137.968,48.468 137.918,48.628 138.138 C 48.968 138.607,61.398 138.787,95.733 138.819 L 123.022 138.844 123.040 141.156 C 123.050 142.427,123.127 144.107,123.211 144.889 C 123.295 145.671,123.531 150.071,123.735 154.667 C 123.940 159.262,124.186 164.782,124.282 166.933 C 124.378 169.084,124.535 171.884,124.630 173.156 C 124.726 174.427,124.896 177.707,125.008 180.444 C 125.120 183.182,125.272 186.222,125.345 187.200 C 125.546 189.894,125.966 199.465,125.950 200.978 C 125.940 201.893,126.064 202.234,126.345 202.065 C 126.571 201.930,126.536 202.090,126.268 202.421 C 125.999 202.752,125.922 203.022,126.096 203.022 C 126.270 203.022,126.395 204.502,126.373 206.311 C 126.352 208.120,126.450 209.840,126.591 210.133 C 126.732 210.427,126.919 212.475,127.006 214.684 L 127.166 218.702 114.694 218.447 C 72.665 217.588,18.282 218.282,16.574 219.700 C 16.320 219.910,16.007 219.977,15.878 219.849 C 15.750 219.720,15.644 219.890,15.644 220.227 C 15.644 221.429,18.941 222.372,26.844 223.434 C 27.627 223.539,30.827 223.882,33.956 224.195 C 37.084 224.508,39.884 224.856,40.178 224.968 C 40.471 225.079,41.351 225.219,42.133 225.278 C 42.916 225.337,44.516 225.476,45.689 225.586 C 46.862 225.697,48.622 225.862,49.600 225.953 C 50.578 226.044,51.858 226.190,52.444 226.277 C 53.031 226.364,54.711 226.523,56.178 226.630 C 57.644 226.737,60.444 226.985,62.400 227.182 C 64.356 227.379,69.396 227.783,73.600 228.080 C 77.804 228.377,82.284 228.729,83.556 228.863 C 84.827 228.997,86.387 229.117,87.022 229.131 C 87.658 229.144,88.178 229.259,88.178 229.386 C 88.178 229.514,89.178 229.614,90.400 229.609 C 91.622 229.604,93.502 229.705,94.578 229.833 C 98.304 230.275,99.824 230.389,109.333 230.943 C 110.898 231.034,112.978 231.189,113.956 231.288 C 115.441 231.437,126.576 232.178,127.338 232.178 C 127.934 232.178,128.161 239.486,128.537 270.756 C 128.817 294.043,129.380 308.795,130.284 316.526 C 130.324 316.864,130.466 317.251,130.600 317.385 C 130.735 317.520,130.842 317.803,130.839 318.015 C 130.836 318.227,130.666 318.160,130.460 317.867 C 130.178 317.464,130.152 317.551,130.354 318.222 C 130.501 318.711,130.663 319.591,130.713 320.178 C 130.903 322.389,132.271 332.023,132.784 334.756 C 133.077 336.320,133.405 338.301,133.511 339.158 C 133.618 340.016,133.791 340.855,133.895 341.024 C 133.999 341.193,134.146 341.611,134.221 341.954 C 134.466 343.071,135.282 345.061,135.586 345.284 C 135.749 345.404,135.857 345.644,135.825 345.818 C 135.745 346.253,136.798 346.876,137.102 346.573 C 137.679 345.995,137.923 342.007,138.156 329.345 C 138.322 320.330,138.535 315.742,138.802 315.398 C 139.116 314.994,139.094 314.949,138.701 315.187 C 138.327 315.412,138.282 315.362,138.523 314.988 C 138.700 314.714,138.867 312.329,138.895 309.689 C 138.923 307.049,139.030 304.009,139.134 302.933 C 139.237 301.858,139.418 298.818,139.536 296.178 C 139.654 293.538,139.828 290.178,139.921 288.711 C 140.015 287.244,140.168 284.284,140.261 282.133 C 140.420 278.472,140.691 273.252,141.507 258.133 C 141.692 254.711,141.943 248.791,142.065 244.978 C 142.187 241.164,142.368 237.644,142.466 237.156 C 142.565 236.667,142.691 235.707,142.746 235.022 C 142.802 234.338,142.866 233.697,142.890 233.598 C 142.914 233.500,143.958 233.420,145.210 233.421 C 146.463 233.421,147.426 233.522,147.350 233.644 C 147.275 233.766,148.555 233.846,150.195 233.822 C 151.835 233.798,153.116 233.875,153.043 233.995 C 152.969 234.114,154.064 234.239,155.476 234.271 C 156.889 234.304,158.844 234.404,159.822 234.494 C 161.904 234.686,177.400 235.608,183.822 235.923 C 186.267 236.042,190.347 236.288,192.889 236.469 C 195.431 236.650,198.578 236.799,199.881 236.799 C 201.444 236.800,202.313 236.951,202.432 237.244 C 202.568 237.579,202.706 237.557,202.990 237.156 C 203.198 236.861,203.369 236.803,203.372 237.026 C 203.376 237.271,204.115 237.447,205.244 237.472 C 206.271 237.494,208.791 237.600,210.844 237.706 C 212.898 237.812,215.858 237.964,217.422 238.043 C 220.032 238.175,221.562 238.270,228.800 238.750 C 230.169 238.841,233.529 239.008,236.267 239.122 C 244.174 239.449,243.813 239.226,244.076 243.934 C 244.179 245.779,244.363 248.569,244.484 250.133 C 244.606 251.698,244.727 253.538,244.753 254.222 C 244.779 254.907,244.902 255.627,245.027 255.822 C 245.151 256.018,245.202 257.018,245.139 258.044 C 245.076 259.071,245.140 259.911,245.280 259.911 C 245.420 259.911,245.567 260.591,245.606 261.422 C 245.645 262.253,245.834 264.373,246.025 266.133 C 246.718 272.499,247.138 276.482,247.318 278.400 C 247.419 279.476,247.563 280.756,247.638 281.244 C 247.976 283.447,248.311 286.424,248.247 286.667 C 248.209 286.813,248.298 286.933,248.444 286.933 C 248.683 286.933,248.773 287.679,248.926 290.933 C 248.951 291.471,249.105 291.911,249.268 291.911 C 249.430 291.911,249.509 292.471,249.443 293.156 C 249.376 293.840,249.464 294.400,249.639 294.400 C 249.813 294.400,249.959 294.920,249.964 295.556 C 249.969 296.191,250.120 297.351,250.300 298.133 C 250.479 298.916,250.733 300.356,250.862 301.333 C 250.992 302.311,251.402 304.631,251.772 306.489 C 252.143 308.347,252.531 310.417,252.635 311.089 C 252.738 311.761,252.957 312.481,253.121 312.689 C 253.284 312.897,253.526 313.707,253.658 314.489 C 253.997 316.497,254.909 320.541,255.542 322.844 C 255.838 323.920,256.130 325.040,256.191 325.333 C 256.252 325.627,256.325 325.867,256.355 325.867 C 256.384 325.867,256.481 326.260,256.569 326.740 C 256.657 327.221,256.850 327.701,256.999 327.807 C 257.147 327.913,257.258 328.240,257.244 328.533 C 257.231 328.827,257.307 329.147,257.412 329.244 C 257.517 329.342,257.912 330.382,258.289 331.556 C 258.666 332.729,259.084 333.849,259.218 334.044 C 259.352 334.240,259.725 335.200,260.048 336.178 C 260.370 337.156,261.031 338.332,261.517 338.793 C 262.003 339.253,262.400 339.835,262.400 340.085 C 262.400 340.335,262.760 340.636,263.200 340.754 C 264.445 341.087,265.956 341.015,265.956 340.622 C 265.956 340.427,266.116 340.267,266.311 340.267 C 266.507 340.267,266.998 339.936,267.402 339.531 C 267.989 338.944,268.544 338.807,270.157 338.849 C 272.906 338.922,272.944 338.916,273.543 338.317 C 274.185 337.676,274.028 328.905,273.343 327.111 C 273.231 326.818,272.876 324.498,272.554 321.956 C 272.232 319.413,271.822 316.533,271.643 315.556 C 271.464 314.578,271.223 312.898,271.108 311.822 C 270.992 310.747,270.728 308.907,270.520 307.733 C 270.313 306.560,270.088 305.120,270.020 304.533 C 269.866 303.195,269.540 301.197,269.323 300.267 C 268.972 298.755,268.497 295.858,268.299 294.015 C 268.000 291.239,266.684 281.288,266.423 279.822 C 266.300 279.138,266.183 278.098,266.162 277.511 C 266.141 276.924,266.023 276.284,265.900 276.089 C 265.778 275.893,265.727 275.133,265.787 274.400 C 265.847 273.667,265.764 273.067,265.603 273.067 C 265.441 273.067,265.353 272.387,265.406 271.556 C 265.459 270.724,265.386 269.884,265.243 269.689 C 264.971 269.315,264.695 266.823,264.340 261.511 C 264.222 259.751,264.066 258.122,263.994 257.891 C 263.769 257.169,265.071 257.662,266.192 258.724 C 266.778 259.279,267.949 260.293,268.795 260.978 C 269.641 261.662,270.508 262.385,270.722 262.583 C 270.936 262.781,271.831 263.501,272.711 264.183 C 273.591 264.865,274.631 265.749,275.022 266.149 C 275.413 266.548,276.213 267.230,276.800 267.663 C 277.387 268.097,278.507 269.008,279.289 269.689 C 284.002 273.787,284.461 274.259,284.012 274.544 C 283.761 274.703,283.685 274.836,283.842 274.839 C 284.093 274.844,283.145 276.855,282.667 277.333 C 282.491 277.509,281.530 279.483,280.200 282.400 C 279.574 283.773,278.629 286.727,278.238 288.533 C 278.153 288.924,277.926 289.764,277.733 290.400 C 277.541 291.036,277.471 291.556,277.579 291.556 C 277.688 291.556,277.610 291.756,277.407 292.000 C 277.204 292.244,277.025 292.564,277.008 292.711 C 276.991 292.858,276.960 293.018,276.938 293.067 C 276.916 293.116,276.850 293.636,276.791 294.222 C 276.733 294.809,276.508 296.168,276.291 297.241 C 275.837 299.491,275.713 311.927,276.138 312.610 C 276.295 312.861,276.376 313.424,276.320 313.861 C 276.263 314.297,276.348 314.857,276.509 315.105 C 276.669 315.353,276.834 316.116,276.875 316.800 C 276.917 317.484,276.967 318.324,276.986 318.667 C 277.006 319.009,277.172 319.289,277.355 319.289 C 277.539 319.289,277.689 319.584,277.689 319.944 C 277.689 321.276,280.491 328.321,281.247 328.889 C 281.377 328.987,282.207 330.068,283.092 331.291 C 283.976 332.515,285.402 334.021,286.261 334.638 C 287.120 335.255,287.876 335.894,287.941 336.058 C 288.006 336.222,288.266 336.356,288.519 336.356 C 288.773 336.356,289.177 336.594,289.419 336.885 C 289.661 337.176,289.989 337.334,290.149 337.235 C 290.309 337.136,290.538 337.214,290.657 337.407 C 291.555 338.860,303.942 339.427,310.400 338.311 C 310.889 338.227,312.969 337.907,315.022 337.600 C 317.076 337.294,319.396 336.861,320.178 336.639 C 320.960 336.417,321.760 336.202,321.956 336.161 C 322.151 336.120,323.831 335.573,325.689 334.946 C 327.547 334.319,329.380 333.742,329.762 333.665 C 330.145 333.587,331.905 332.815,333.674 331.950 C 335.442 331.085,337.249 330.271,337.689 330.142 C 338.129 330.013,338.489 329.758,338.489 329.576 C 338.489 329.394,338.723 329.244,339.008 329.244 C 339.294 329.244,339.854 328.894,340.253 328.466 C 340.652 328.038,340.980 327.838,340.983 328.022 C 340.986 328.205,341.106 328.179,341.250 327.964 C 341.394 327.749,342.191 327.147,343.022 326.626 C 343.853 326.106,344.533 325.513,344.533 325.308 C 344.533 325.103,344.693 325.035,344.889 325.156 C 345.084 325.276,345.244 325.206,345.244 324.999 C 345.244 324.792,345.494 324.622,345.799 324.622 C 346.111 324.622,346.248 324.452,346.111 324.231 C 345.942 323.956,346.094 323.960,346.624 324.244 C 347.038 324.466,347.378 324.765,347.378 324.909 C 347.378 325.054,347.911 325.459,348.563 325.810 C 349.215 326.161,350.175 326.844,350.696 327.327 C 351.218 327.811,351.647 328.080,351.650 327.926 C 351.653 327.771,351.773 327.807,351.917 328.005 C 352.325 328.569,355.802 331.378,356.091 331.378 C 356.322 331.378,357.766 332.487,359.556 334.038 C 359.898 334.335,360.178 334.491,360.178 334.386 C 360.178 334.177,360.755 334.626,362.252 336.000 C 362.785 336.489,363.296 336.909,363.388 336.933 C 363.480 336.957,364.836 337.797,366.400 338.800 C 374.197 343.795,371.883 339.882,360.004 327.982 C 350.066 318.027,350.915 319.182,352.389 317.621 C 353.055 316.915,353.360 316.467,353.067 316.626 C 352.730 316.808,352.796 316.599,353.244 316.057 C 354.299 314.786,354.847 313.715,355.719 311.222 C 356.150 309.988,356.584 309.058,356.683 309.157 C 357.596 310.070,357.911 296.927,357.018 295.201 C 356.722 294.630,356.429 293.889,355.191 290.578 C 354.953 289.942,354.630 289.422,354.474 289.422 C 354.318 289.422,354.087 288.953,353.961 288.380 C 353.835 287.807,353.503 287.148,353.222 286.915 C 352.941 286.682,351.984 285.471,351.093 284.223 C 350.203 282.976,349.297 281.956,349.080 281.956 C 348.863 281.956,348.151 281.356,347.499 280.622 C 346.846 279.889,346.192 279.286,346.045 279.283 C 345.778 279.277,345.449 279.021,342.510 276.533 C 341.643 275.800,340.624 275.200,340.245 275.200 C 339.866 275.200,339.556 275.043,339.556 274.852 C 339.556 274.536,337.274 273.186,336.617 273.113 C 336.196 273.065,332.444 270.612,332.444 270.383 C 332.444 270.272,332.609 270.282,332.810 270.406 C 333.043 270.550,333.107 270.243,332.985 269.553 C 332.839 268.722,333.020 268.206,333.775 267.304 C 336.050 264.587,336.136 263.724,334.311 261.886 C 332.429 259.990,327.139 257.686,323.586 257.215 C 322.591 257.083,321.778 256.876,321.778 256.754 C 321.777 256.633,321.097 256.497,320.266 256.453 C 319.435 256.409,318.396 256.286,317.956 256.180 C 317.516 256.073,317.156 256.146,317.156 256.340 C 317.156 256.574,316.842 256.574,316.230 256.342 C 315.197 255.949,311.822 255.970,311.822 256.368 C 311.822 256.509,311.340 256.583,310.750 256.533 C 310.160 256.483,309.591 256.582,309.485 256.754 C 309.378 256.926,308.879 257.067,308.376 257.067 C 307.462 257.067,305.168 257.606,303.822 258.137 C 303.431 258.291,302.551 258.628,301.867 258.885 C 299.907 259.621,294.705 262.783,293.610 263.903 L 292.616 264.919 291.779 264.015 C 291.318 263.518,290.767 263.111,290.555 263.111 C 290.342 263.111,290.041 262.885,289.884 262.608 C 289.728 262.331,288.978 261.611,288.218 261.008 C 287.458 260.405,286.958 259.911,287.109 259.911 C 287.259 259.911,286.561 259.258,285.558 258.459 C 284.554 257.660,283.733 256.860,283.733 256.681 C 283.733 256.502,283.493 256.356,283.200 256.356 C 282.907 256.356,282.667 256.206,282.667 256.024 C 282.667 255.842,282.344 255.590,281.950 255.465 C 281.556 255.340,281.326 255.089,281.438 254.908 C 281.550 254.726,281.483 254.578,281.289 254.578 C 281.094 254.578,280.066 253.738,279.003 252.711 C 275.715 249.534,273.441 247.467,273.234 247.467 C 273.125 247.467,272.123 246.581,271.007 245.498 C 267.535 242.130,266.866 241.531,266.133 241.126 C 265.577 240.818,266.242 240.730,269.185 240.722 C 271.255 240.716,273.068 240.831,273.215 240.978 C 273.362 241.124,274.788 241.275,276.385 241.312 C 277.982 241.350,280.809 241.463,282.667 241.565 C 284.524 241.666,288.284 241.830,291.022 241.929 C 293.760 242.029,297.520 242.195,299.378 242.299 C 301.236 242.403,305.236 242.573,308.267 242.678 C 311.298 242.782,315.298 242.933,317.156 243.012 C 342.371 244.091,383.570 244.508,388.800 243.738 C 389.582 243.622,391.277 243.377,392.565 243.192 C 395.388 242.787,397.361 242.012,397.837 241.122 C 398.208 240.429,397.643 237.867,397.120 237.867 C 396.717 237.867,397.082 234.932,397.518 234.662 C 398.107 234.298,398.293 232.067,397.786 231.455 C 397.071 230.593,390.906 228.914,388.178 228.837 C 387.444 228.817,386.844 228.705,386.844 228.589 C 386.844 228.474,385.774 228.344,384.465 228.302 C 383.157 228.259,381.974 228.155,381.837 228.070 C 381.700 227.986,380.170 227.838,378.438 227.743 C 376.706 227.648,374.889 227.494,374.400 227.401 C 373.911 227.307,370.551 227.059,366.933 226.849 C 363.316 226.639,359.636 226.404,358.756 226.327 C 357.876 226.250,352.566 225.984,346.956 225.735 C 341.346 225.485,336.823 225.174,336.904 225.042 C 336.985 224.911,335.575 224.800,333.770 224.795 C 331.966 224.791,328.729 224.689,326.578 224.569 C 321.416 224.281,315.864 224.058,308.267 223.835 C 304.844 223.735,300.684 223.575,299.022 223.480 C 297.360 223.386,293.120 223.220,289.600 223.113 C 286.080 223.006,281.120 222.845,278.578 222.755 C 276.036 222.666,271.036 222.491,267.467 222.366 L 260.978 222.140 260.978 220.848 C 260.977 220.137,260.827 216.676,260.643 213.156 C 260.287 206.323,260.025 200.057,259.735 191.467 C 259.637 188.533,259.475 183.893,259.376 181.156 C 259.278 178.418,259.115 172.578,259.014 168.178 C 258.912 163.778,258.748 156.658,258.647 152.356 C 258.405 141.978,258.373 137.598,258.538 137.433 C 258.733 137.238,266.720 136.941,278.222 136.701 C 283.698 136.587,290.418 136.429,293.156 136.351 C 295.893 136.273,301.733 136.116,306.133 136.002 C 310.533 135.888,315.573 135.720,317.333 135.629 C 323.342 135.319,327.288 135.081,329.244 134.909 C 330.320 134.815,332.400 134.663,333.867 134.571 C 335.333 134.480,338.293 134.258,340.444 134.078 C 344.531 133.737,350.175 133.415,359.467 132.994 C 365.910 132.702,380.271 132.790,388.570 133.173 C 395.000 133.470,396.000 133.037,392.718 131.378 C 391.945 130.987,391.095 130.467,390.831 130.222 C 390.566 129.978,390.241 129.766,390.108 129.751 C 389.490 129.681,388.559 129.455,386.799 128.946 C 384.746 128.353,384.642 128.331,380.089 127.479 C 378.427 127.168,376.375 126.755,375.530 126.562 C 374.685 126.369,373.845 126.303,373.664 126.416 C 373.482 126.528,373.333 126.441,373.333 126.222 C 373.333 126.004,373.211 125.900,373.061 125.993 C 372.911 126.086,372.071 126.028,371.194 125.865 C 370.317 125.702,368.000 125.471,366.044 125.353 C 364.089 125.234,361.769 125.065,360.889 124.977 C 358.617 124.749,352.424 124.496,342.759 124.234 C 334.549 124.012,334.393 123.994,333.620 123.160 C 333.188 122.693,332.912 122.311,333.008 122.311 C 333.104 122.311,332.536 121.360,331.747 120.197 C 330.957 119.035,330.311 117.915,330.311 117.708 C 330.311 117.502,330.170 117.333,329.999 117.333 C 329.827 117.333,328.805 116.013,327.729 114.400 C 326.652 112.787,324.993 110.485,324.041 109.286 C 323.090 108.087,322.071 106.757,321.778 106.331 C 321.484 105.905,320.724 104.986,320.089 104.289 C 319.453 103.592,318.933 102.807,318.933 102.546 C 318.933 102.284,318.613 101.898,318.222 101.689 C 317.831 101.480,317.511 100.985,317.511 100.589 C 317.511 100.193,317.672 99.969,317.869 100.090 C 318.066 100.212,318.325 100.057,318.444 99.746 C 318.563 99.436,319.402 98.750,320.308 98.223 C 321.214 97.696,322.116 97.141,322.311 96.991 C 322.507 96.840,323.547 96.032,324.622 95.196 C 328.070 92.515,329.188 91.733,329.576 91.733 C 329.785 91.733,329.956 91.600,329.956 91.438 C 329.956 91.276,330.716 90.602,331.644 89.941 C 332.573 89.280,333.387 88.613,333.452 88.459 C 333.517 88.304,333.775 88.178,334.024 88.178 C 334.274 88.178,334.781 87.771,335.150 87.275 C 335.520 86.778,336.462 85.991,337.244 85.526 C 338.027 85.061,339.299 84.027,340.072 83.229 C 340.845 82.431,341.645 81.778,341.850 81.777 C 342.055 81.777,342.817 81.257,343.545 80.622 C 344.272 79.987,345.186 79.218,345.576 78.914 C 345.965 78.610,346.967 77.730,347.802 76.959 C 348.637 76.187,349.443 75.596,349.593 75.644 C 349.744 75.693,349.834 75.613,349.793 75.467 C 349.753 75.320,350.704 74.216,351.907 73.013 C 356.032 68.888,356.687 64.759,353.523 62.823 C 353.264 62.664,353.145 62.384,353.258 62.200 C 353.371 62.017,353.295 61.867,353.088 61.867 C 352.881 61.867,352.711 61.627,352.711 61.333 C 352.711 61.040,352.570 60.800,352.397 60.800 C 352.114 60.800,351.777 60.054,351.457 58.724 C 351.037 56.976,348.354 56.325,345.855 57.365 C 345.226 57.627,344.489 57.766,344.217 57.674 C 343.885 57.562,343.817 57.659,344.009 57.970 C 344.214 58.302,344.128 58.368,343.703 58.205 C 343.377 58.080,343.111 58.142,343.111 58.343 C 343.111 58.544,342.951 58.610,342.756 58.489 C 342.560 58.368,342.400 58.448,342.400 58.667 C 342.400 58.885,342.254 58.974,342.075 58.863 C 341.896 58.753,341.696 58.793,341.630 58.953 C 341.565 59.112,340.471 59.873,339.200 60.644 C 337.929 61.414,336.835 62.165,336.770 62.313 C 336.704 62.461,336.515 62.499,336.350 62.396 C 336.184 62.294,335.838 62.498,335.580 62.849 C 335.322 63.200,334.196 64.087,333.078 64.822 C 331.960 65.556,330.920 66.362,330.767 66.614 C 330.614 66.865,329.769 67.562,328.889 68.161 C 328.009 68.761,326.717 69.790,326.017 70.448 C 325.318 71.106,324.286 71.964,323.724 72.356 C 323.162 72.747,322.102 73.627,321.367 74.311 C 320.632 74.996,319.352 76.116,318.521 76.800 C 317.690 77.484,316.580 78.444,316.054 78.933 C 314.135 80.715,312.891 81.778,312.724 81.778 C 312.629 81.778,311.832 82.498,310.952 83.378 C 310.072 84.258,309.228 84.979,309.076 84.979 C 308.924 84.980,308.280 85.468,307.644 86.064 C 306.829 86.828,306.489 86.985,306.489 86.596 C 306.489 86.293,306.348 86.044,306.175 86.044 C 306.002 86.044,305.768 85.691,305.656 85.260 C 305.543 84.829,305.332 84.594,305.188 84.738 C 305.043 84.883,304.262 83.948,303.451 82.661 C 302.640 81.374,301.629 80.078,301.204 79.781 C 300.780 79.484,300.525 79.091,300.637 78.909 C 300.750 78.727,300.713 78.575,300.554 78.571 C 300.396 78.567,299.798 77.775,299.226 76.811 C 298.654 75.847,298.029 75.155,297.838 75.273 C 297.638 75.396,297.604 75.303,297.759 75.052 C 297.909 74.811,297.782 74.352,297.475 74.020 C 295.777 72.185,295.467 71.788,295.467 71.452 C 295.467 71.059,295.082 70.525,293.771 69.099 C 293.327 68.616,293.057 68.071,293.170 67.888 C 293.283 67.705,293.224 67.556,293.039 67.556 C 292.854 67.556,292.438 66.996,292.113 66.311 C 291.788 65.627,291.370 65.067,291.183 65.067 C 290.997 65.067,290.884 64.927,290.933 64.757 C 290.982 64.587,290.363 63.427,289.557 62.180 C 288.752 60.932,287.792 59.351,287.424 58.667 C 287.056 57.982,286.316 56.839,285.778 56.127 C 285.240 55.414,284.800 54.676,284.800 54.487 C 284.800 54.299,284.251 53.562,283.579 52.850 C 282.908 52.138,282.453 51.556,282.567 51.556 C 282.682 51.556,282.406 51.235,281.954 50.843 C 280.636 49.700,278.811 49.361,277.156 49.951 C 276.373 50.230,275.453 50.465,275.111 50.473 C 274.769 50.482,274.489 50.634,274.489 50.811 C 274.489 50.988,274.169 51.050,273.778 50.947 C 273.380 50.843,273.067 50.937,273.067 51.159 C 273.067 51.377,272.597 51.556,272.023 51.556 C 271.449 51.556,270.529 51.727,269.979 51.936 C 269.428 52.145,268.912 52.265,268.832 52.203 C 267.760 51.367,267.753 58.844,268.825 60.846 C 269.025 61.220,269.100 61.669,268.992 61.844 C 268.884 62.018,268.917 62.215,269.064 62.281 C 269.212 62.346,269.629 63.280,269.990 64.356 C 270.663 66.357,271.720 68.585,273.785 72.356 C 274.428 73.529,275.279 75.089,275.676 75.822 C 276.073 76.556,276.529 77.156,276.688 77.156 C 276.847 77.156,276.978 77.378,276.978 77.651 C 276.978 77.923,277.218 78.238,277.511 78.351 C 277.804 78.463,278.044 78.800,278.044 79.100 C 278.044 79.399,278.204 79.644,278.400 79.644 C 278.596 79.644,278.756 79.884,278.756 80.178 C 278.756 80.471,278.916 80.711,279.111 80.711 C 279.307 80.711,279.468 80.911,279.470 81.156 C 279.473 81.400,280.079 82.240,280.818 83.022 C 281.558 83.804,282.548 85.004,283.019 85.689 C 283.490 86.373,284.083 87.061,284.338 87.218 C 284.592 87.374,284.800 87.670,284.800 87.875 C 284.800 88.081,285.360 88.809,286.044 89.493 C 286.729 90.178,287.289 90.971,287.289 91.257 C 287.289 91.542,287.449 91.676,287.644 91.556 C 287.840 91.435,288.000 91.484,288.000 91.666 C 288.000 91.847,288.680 92.710,289.511 93.582 C 293.732 98.015,293.976 98.404,292.939 99.022 C 292.224 99.449,289.292 101.877,288.021 103.095 C 287.521 103.575,287.084 103.895,287.051 103.806 C 287.017 103.717,286.537 104.038,285.984 104.519 C 285.431 105.001,284.912 105.346,284.832 105.288 C 284.752 105.229,284.542 105.438,284.366 105.753 C 284.189 106.068,283.895 106.233,283.711 106.120 C 283.528 106.006,283.378 106.137,283.378 106.411 C 283.378 106.684,283.018 107.093,282.578 107.318 C 280.984 108.136,279.539 109.032,279.006 109.533 C 277.863 110.606,276.159 111.796,275.659 111.870 C 275.372 111.912,274.861 112.196,274.524 112.502 C 274.186 112.808,273.400 113.235,272.777 113.453 C 272.154 113.670,271.638 114.032,271.631 114.257 C 271.623 114.482,270.783 115.067,269.764 115.556 C 267.595 116.596,266.906 118.854,268.729 118.946 C 268.866 118.953,269.375 119.179,269.861 119.447 C 270.934 120.041,276.660 120.053,279.289 119.467 C 280.267 119.249,281.347 119.069,281.689 119.068 C 282.031 119.068,282.311 118.922,282.311 118.745 C 282.311 118.567,282.551 118.514,282.844 118.627 C 283.138 118.740,283.378 118.672,283.378 118.478 C 283.378 118.283,283.970 118.012,284.695 117.877 C 285.419 117.741,286.579 117.345,287.272 116.996 C 287.966 116.648,289.173 116.162,289.956 115.916 C 291.881 115.312,297.248 112.678,298.092 111.923 C 298.467 111.588,298.909 111.397,299.073 111.498 C 299.238 111.600,299.653 111.519,299.997 111.319 C 300.341 111.119,300.465 110.950,300.272 110.944 C 300.079 110.938,300.938 110.437,302.181 109.831 L 304.440 108.729 305.450 109.476 C 306.006 109.886,306.636 110.222,306.851 110.222 C 307.066 110.222,307.142 110.384,307.020 110.581 C 306.898 110.778,307.119 111.058,307.511 111.203 C 307.904 111.348,308.234 111.587,308.245 111.733 C 308.257 111.880,308.387 112.024,308.533 112.054 C 308.680 112.084,309.520 112.802,310.400 113.650 C 311.280 114.498,312.209 115.193,312.465 115.196 C 312.721 115.198,312.853 115.325,312.759 115.478 C 312.664 115.631,313.175 116.151,313.894 116.632 C 314.612 117.114,315.409 117.789,315.665 118.132 C 315.920 118.475,316.365 118.756,316.654 118.756 C 316.942 118.756,317.270 118.996,317.383 119.289 C 317.495 119.582,317.815 119.822,318.094 119.822 C 318.372 119.822,318.692 120.062,318.805 120.356 C 318.917 120.649,319.159 120.889,319.342 120.889 C 319.677 120.889,320.183 121.252,321.448 122.400 C 321.825 122.742,322.225 123.022,322.337 123.022 C 322.448 123.022,322.798 123.281,323.114 123.597 C 323.660 124.143,307.214 124.111,300.800 123.555 C 299.920 123.478,293.840 123.307,287.289 123.173 C 280.738 123.040,275.138 122.884,274.844 122.826 C 274.551 122.768,270.662 122.709,266.201 122.694 C 260.892 122.676,258.167 122.544,258.311 122.311 C 258.432 122.116,258.401 121.956,258.243 121.956 C 258.085 121.956,257.963 118.916,257.973 115.200 C 257.985 110.715,257.865 108.443,257.617 108.439 C 257.412 108.436,257.484 108.278,257.778 108.089 C 258.071 107.899,258.151 107.742,257.956 107.739 C 257.730 107.735,257.613 105.353,257.634 101.244 C 257.653 97.676,257.517 94.456,257.332 94.090 C 257.097 93.625,257.113 93.498,257.387 93.667 C 257.602 93.800,257.778 93.739,257.778 93.532 C 257.778 93.325,257.643 93.156,257.479 93.156 C 257.315 93.156,257.073 88.716,256.940 83.289 C 256.475 64.268,255.194 46.617,254.135 44.637 C 253.930 44.254,253.746 43.614,253.726 43.215 C 253.702 42.747,253.404 42.448,252.889 42.375 C 251.980 42.246,251.559 43.045,251.207 45.564 C 251.088 46.415,250.841 47.991,250.658 49.067 C 250.474 50.142,250.156 52.622,249.950 54.578 C 249.744 56.533,249.512 58.693,249.434 59.378 C 249.114 62.185,248.898 64.309,248.693 66.667 C 248.574 68.036,248.411 69.876,248.332 70.756 C 248.252 71.636,248.104 73.932,248.003 75.859 C 247.902 77.786,247.758 79.466,247.683 79.592 C 247.609 79.719,247.444 82.062,247.318 84.800 C 247.192 87.538,247.021 90.338,246.937 91.022 C 246.852 91.707,246.692 93.787,246.580 95.644 C 246.468 97.502,246.211 101.342,246.009 104.178 C 245.495 111.390,245.372 113.457,245.218 117.441 C 245.144 119.358,244.937 121.072,244.758 121.251 C 244.314 121.695,236.991 121.786,226.311 121.481 C 221.422 121.342,212.062 121.154,205.511 121.065 C 198.960 120.975,187.760 120.817,180.622 120.713 C 169.364 120.549,142.059 120.181,140.946 120.179 C 140.684 120.178,140.482 117.498,140.324 111.911 C 140.093 103.729,139.776 95.515,139.546 91.733 C 139.270 87.189,138.990 80.680,138.951 77.867 C 138.928 76.204,138.804 74.764,138.675 74.667 C 138.546 74.569,138.253 70.889,138.024 66.489 C 137.543 57.227,136.754 48.276,135.970 43.200 C 135.669 41.244,135.405 39.444,135.385 39.200 C 135.365 38.956,135.230 38.756,135.085 38.756 C 134.940 38.756,134.906 38.436,135.008 38.044 C 135.110 37.653,135.033 37.333,134.836 37.333 C 134.638 37.333,134.367 36.893,134.233 36.356 C 133.508 33.447,131.683 31.928,130.297 33.079 C 130.011 33.316,129.778 33.418,129.778 33.306 C 129.778 33.194,129.241 33.327,128.584 33.602 C 127.542 34.037,127.164 34.028,125.613 33.532 C 121.821 32.319,121.371 33.065,120.533 41.956 C 120.232 45.146,120.359 87.498,120.676 89.778 C 120.757 90.364,120.935 95.084,121.069 100.267 C 121.204 105.449,121.318 109.769,121.322 109.867 C 121.406 111.974,121.232 112.455,120.594 111.877 C 120.237 111.554,119.862 111.289,119.762 111.289 C 119.662 111.289,118.555 110.312,117.301 109.118 C 116.048 107.923,114.382 106.390,113.600 105.710 C 112.818 105.030,111.924 104.247,111.615 103.970 C 111.305 103.693,110.926 103.467,110.772 103.467 C 110.618 103.467,109.790 102.787,108.932 101.956 C 106.887 99.974,104.642 97.968,101.156 95.005 L 98.311 92.587 98.041 89.582 C 97.766 86.524,96.179 80.355,95.566 79.960 C 95.380 79.841,95.253 79.681,95.284 79.605 C 95.480 79.114,92.150 72.178,91.717 72.178 C 91.530 72.178,91.378 71.938,91.378 71.644 C 91.378 71.351,91.218 71.111,91.022 71.111 C 90.827 71.111,90.666 70.911,90.666 70.667 C 90.666 70.281,90.185 69.602,88.526 67.644 C 88.319 67.400,88.276 67.198,88.430 67.195 C 88.585 67.192,88.471 67.037,88.178 66.852 C 87.884 66.667,87.638 66.389,87.629 66.235 C 87.621 66.081,86.981 65.288,86.207 64.472 C 82.296 60.348,81.776 59.667,81.951 58.901 C 82.048 58.479,82.309 57.297,82.531 56.274 C 82.754 55.251,83.075 54.501,83.246 54.606 C 83.416 54.711,83.556 54.548,83.556 54.243 C 83.556 53.938,83.704 53.689,83.885 53.689 C 85.232 53.689,85.560 49.751,84.293 48.797 C 83.841 48.456,83.197 47.938,82.861 47.644 C 82.526 47.351,82.027 47.058,81.752 46.994 C 81.476 46.929,81.163 46.734,81.056 46.560 C 79.779 44.495,67.718 43.159,61.689 44.415 C 56.536 45.488,56.389 45.526,56.185 45.844 C 56.083 46.003,55.480 46.246,54.844 46.384 C 54.209 46.521,53.689 46.791,53.689 46.983 C 53.689 47.174,53.547 47.243,53.374 47.136 C 53.200 47.029,52.846 47.197,52.586 47.510 C 51.441 48.890,50.769 48.717,48.434 46.442 C 47.206 45.245,45.953 44.027,45.650 43.733 C 41.138 39.363,32.356 29.906,32.356 29.419 C 32.356 29.251,32.230 29.191,32.077 29.286 C 31.924 29.380,31.405 28.870,30.922 28.151 C 30.440 27.432,29.844 26.632,29.598 26.372 C 29.352 26.113,28.984 25.588,28.780 25.207 C 28.576 24.825,28.268 24.600,28.097 24.706 C 27.925 24.812,27.682 24.577,27.557 24.183 C 27.432 23.789,27.181 23.467,26.998 23.467 C 26.816 23.467,26.667 23.227,26.667 22.933 C 26.667 22.640,26.517 22.400,26.335 22.400 C 26.153 22.400,25.912 22.113,25.801 21.762 C 25.690 21.411,25.039 20.531,24.355 19.806 C 23.671 19.081,23.111 18.391,23.111 18.273 C 23.111 18.154,22.631 17.452,22.044 16.711 C 21.458 15.970,20.978 15.269,20.978 15.153 C 20.978 15.037,20.698 14.615,20.356 14.217 C 19.578 13.311,18.192 11.049,17.908 10.222 C 17.791 9.880,17.544 9.600,17.360 9.600 C 17.175 9.600,17.105 9.470,17.203 9.312 C 17.301 9.153,16.915 8.477,16.345 7.810 C 15.775 7.142,15.125 6.152,14.900 5.609 C 14.675 5.066,14.351 4.622,14.179 4.622 C 14.007 4.622,13.867 4.392,13.867 4.110 C 13.867 3.828,13.682 3.483,13.456 3.344 C 13.183 3.175,13.143 3.248,13.337 3.562 C 13.519 3.856,13.310 3.810,12.780 3.439 C 11.796 2.750,11.732 2.741,11.022 3.200 M153.048 53.811 C 152.282 54.233,151.493 54.717,151.294 54.888 C 151.096 55.058,149.573 55.858,147.911 56.666 L 144.889 58.133 144.943 60.267 C 145.017 63.214,145.101 63.720,145.652 64.524 C 145.917 64.909,146.133 65.496,146.133 65.827 C 146.133 66.159,146.253 66.483,146.400 66.548 C 146.547 66.613,147.141 67.587,147.721 68.711 C 148.301 69.836,148.862 70.756,148.969 70.756 C 149.075 70.756,149.373 71.092,149.630 71.504 C 150.017 72.124,150.016 72.204,149.626 71.972 C 149.367 71.819,149.836 72.438,150.667 73.349 C 151.498 74.261,152.178 75.187,152.178 75.407 C 152.178 75.628,152.809 76.471,153.581 77.282 C 156.090 79.919,156.800 80.739,156.800 81.004 C 156.800 81.414,158.139 82.454,158.370 82.223 C 158.484 82.108,158.580 82.241,158.582 82.519 C 158.584 82.796,159.504 83.876,160.626 84.919 L 162.667 86.816 159.822 89.780 C 156.245 93.508,155.742 94.112,156.000 94.370 C 156.114 94.484,156.032 94.578,155.817 94.578 C 155.602 94.578,155.330 94.879,155.213 95.247 C 155.097 95.615,154.687 96.278,154.303 96.720 C 153.519 97.624,152.965 99.305,152.657 101.711 C 152.324 104.321,153.700 105.078,156.267 103.697 C 156.658 103.486,157.058 103.304,157.156 103.292 C 157.253 103.280,157.733 103.004,158.222 102.678 C 158.711 102.352,160.231 101.567,161.600 100.933 C 162.969 100.300,164.206 99.611,164.350 99.402 C 164.494 99.193,164.614 99.167,164.617 99.344 C 164.620 99.521,164.902 99.428,165.244 99.138 C 165.587 98.847,166.587 98.336,167.467 98.002 C 168.347 97.669,169.787 97.041,170.667 96.609 L 172.267 95.822 174.311 97.205 C 175.436 97.966,176.356 98.735,176.356 98.915 C 176.356 99.095,176.491 99.158,176.657 99.056 C 176.823 98.953,177.263 99.144,177.635 99.479 C 178.834 100.560,180.921 102.044,181.243 102.044 C 181.414 102.044,181.890 102.357,182.301 102.739 C 183.283 103.655,186.890 105.956,187.343 105.956 C 187.538 105.956,187.861 106.236,188.060 106.578 C 188.260 106.920,188.428 107.069,188.434 106.908 C 188.440 106.747,188.697 106.869,189.006 107.178 C 189.316 107.487,189.716 107.649,189.895 107.538 C 190.075 107.427,190.222 107.505,190.222 107.712 C 190.222 107.919,190.462 108.089,190.756 108.089 C 191.049 108.089,191.291 108.209,191.292 108.356 C 191.294 108.502,192.174 109.013,193.248 109.490 C 194.322 109.968,195.200 110.497,195.200 110.667 C 195.200 110.836,195.349 110.883,195.531 110.771 C 195.713 110.658,195.964 110.731,196.089 110.933 C 196.214 111.135,196.465 111.208,196.647 111.096 C 196.829 110.983,196.978 111.061,196.978 111.268 C 196.978 111.475,197.098 111.612,197.244 111.571 C 197.391 111.531,198.023 111.771,198.649 112.105 C 201.351 113.545,205.874 114.193,207.078 113.313 C 207.758 112.815,207.217 109.649,206.525 110.077 C 206.258 110.242,206.062 109.462,206.180 108.711 C 206.203 108.564,206.064 108.444,205.871 108.444 C 205.678 108.444,205.092 107.764,204.569 106.933 C 204.046 106.102,203.084 104.931,202.432 104.330 C 201.779 103.730,201.244 103.106,201.244 102.944 C 201.244 102.782,200.692 102.113,200.018 101.458 C 199.343 100.803,198.874 100.267,198.976 100.267 C 199.078 100.267,198.922 100.027,198.629 99.733 C 198.335 99.440,197.914 99.200,197.693 99.200 C 197.472 99.200,197.385 99.048,197.500 98.862 C 197.615 98.677,197.387 98.353,196.995 98.142 C 196.602 97.932,195.903 97.205,195.442 96.526 C 194.981 95.848,194.498 95.398,194.368 95.528 C 194.239 95.657,194.133 95.571,194.133 95.336 C 194.133 95.101,193.133 93.911,191.911 92.692 C 189.791 90.578,188.109 88.437,188.701 88.605 C 188.853 88.649,189.338 88.485,189.778 88.241 C 190.218 87.997,190.578 87.908,190.578 88.043 C 190.578 88.178,190.898 87.998,191.289 87.644 C 191.680 87.290,192.000 87.117,192.000 87.259 C 192.000 87.401,192.245 87.272,192.545 86.973 C 192.844 86.673,193.644 86.324,194.323 86.197 C 195.001 86.069,195.556 85.823,195.556 85.649 C 195.556 85.476,195.676 85.359,195.822 85.391 C 196.379 85.511,200.274 83.737,201.333 82.881 C 201.676 82.605,201.956 82.489,201.956 82.623 C 201.956 82.865,204.938 81.314,205.762 80.643 C 205.998 80.451,206.345 80.390,206.534 80.506 C 206.722 80.622,207.117 80.476,207.413 80.181 C 207.708 79.886,208.121 79.644,208.330 79.644 C 208.540 79.644,208.711 79.475,208.711 79.268 C 208.711 79.061,208.857 78.982,209.036 79.092 C 209.215 79.203,209.415 79.166,209.481 79.010 C 209.546 78.854,210.541 78.200,211.691 77.556 C 212.840 76.913,213.960 76.239,214.179 76.060 C 216.772 73.937,218.171 72.889,218.414 72.889 C 218.576 72.889,218.610 72.729,218.489 72.533 C 218.368 72.338,218.436 72.178,218.640 72.178 C 219.616 72.178,221.259 67.422,220.533 66.696 C 220.387 66.550,220.267 66.313,220.267 66.170 C 220.267 66.028,219.549 65.054,218.672 64.006 C 217.794 62.958,216.558 61.288,215.925 60.295 C 215.292 59.302,214.770 58.609,214.765 58.756 C 214.760 58.902,214.445 58.711,214.065 58.331 C 213.324 57.591,210.402 57.545,209.685 58.262 C 209.493 58.454,209.115 58.526,208.846 58.423 C 208.576 58.320,208.356 58.407,208.356 58.617 C 208.356 58.828,208.090 58.898,207.764 58.773 C 207.369 58.621,207.257 58.683,207.427 58.958 C 207.593 59.227,207.490 59.296,207.130 59.158 C 206.826 59.041,206.578 59.123,206.578 59.340 C 206.578 59.556,206.378 59.733,206.133 59.733 C 205.696 59.733,199.814 62.544,199.467 62.919 C 199.369 63.025,197.689 63.902,195.733 64.868 C 193.778 65.835,192.098 66.737,192.000 66.873 C 191.754 67.214,189.469 68.585,188.711 68.846 C 188.369 68.964,188.089 69.202,188.089 69.375 C 188.089 69.548,187.969 69.656,187.822 69.616 C 187.512 69.531,185.151 70.733,184.889 71.110 C 184.791 71.251,183.512 72.043,182.046 72.870 C 180.580 73.697,179.263 74.560,179.118 74.787 C 178.974 75.014,178.850 75.040,178.844 74.844 C 178.838 74.649,178.689 74.718,178.512 74.997 C 177.788 76.141,174.938 74.626,174.934 73.096 C 174.934 72.917,174.832 72.872,174.708 72.995 C 174.584 73.119,173.999 72.546,173.407 71.721 C 172.814 70.897,171.716 69.584,170.965 68.804 C 170.214 68.023,169.600 67.249,169.600 67.082 C 169.600 66.541,166.947 63.320,166.489 63.304 C 166.244 63.296,166.084 63.163,166.133 63.010 C 166.276 62.561,163.320 59.022,163.035 59.301 C 162.893 59.441,162.832 59.286,162.900 58.957 C 162.967 58.627,162.897 58.353,162.743 58.347 C 162.433 58.335,161.422 57.396,161.422 57.120 C 161.422 57.024,160.766 56.282,159.964 55.472 C 157.611 53.096,155.338 52.549,153.048 53.811 M74.070 61.333 C 74.035 61.529,74.256 61.964,74.560 62.301 C 75.216 63.026,78.578 68.958,78.578 69.390 C 78.578 69.554,78.704 69.689,78.859 69.689 C 79.221 69.689,82.300 76.348,82.188 76.889 C 82.158 77.036,82.293 77.156,82.489 77.156 C 82.684 77.156,82.810 77.276,82.769 77.422 C 82.727 77.569,82.900 78.063,83.153 78.519 C 83.735 79.571,83.459 79.866,82.514 79.204 C 82.112 78.922,81.888 78.586,82.017 78.457 C 82.146 78.328,82.065 78.222,81.837 78.222 C 80.891 78.222,65.067 63.177,65.067 62.277 C 65.067 61.911,68.448 61.190,70.756 61.065 C 73.504 60.915,74.135 60.966,74.070 61.333 M53.757 77.956 C 54.770 78.982,55.482 79.627,55.340 79.388 C 55.198 79.149,57.613 81.469,60.707 84.543 C 66.384 90.185,68.925 92.534,70.406 93.511 C 70.851 93.804,71.715 94.524,72.328 95.111 C 73.950 96.665,76.443 98.633,77.111 98.886 C 79.203 99.681,70.454 100.716,63.024 100.552 C 56.070 100.400,55.121 100.171,52.966 98.137 C 52.288 97.496,51.973 97.099,52.267 97.255 C 52.560 97.410,52.405 97.104,51.922 96.574 C 49.422 93.830,48.705 85.587,50.437 79.491 C 51.606 75.377,51.336 75.502,53.757 77.956 M244.109 138.024 C 244.026 138.280,243.869 141.689,243.761 145.600 C 243.653 149.511,243.442 156.551,243.293 161.244 C 243.144 165.938,243.022 181.079,243.022 194.893 L 243.022 220.007 241.778 218.999 C 241.093 218.445,239.575 217.102,238.404 216.015 C 237.233 214.928,235.991 213.948,235.643 213.838 C 235.296 213.728,235.104 213.489,235.216 213.308 C 235.328 213.126,235.261 212.978,235.067 212.978 C 234.873 212.978,233.806 212.098,232.695 211.022 C 231.585 209.947,230.570 209.067,230.440 209.067 C 230.309 209.067,229.805 208.627,229.318 208.089 C 228.355 207.024,225.697 204.633,223.291 202.667 C 222.453 201.982,220.934 200.582,219.916 199.556 C 218.897 198.529,217.909 197.689,217.721 197.689 C 217.532 197.689,217.023 197.209,216.590 196.622 C 216.156 196.036,215.643 195.556,215.450 195.556 C 215.063 195.556,211.911 192.374,211.911 191.984 C 211.911 191.849,212.551 191.315,213.333 190.798 C 214.116 190.280,214.756 189.699,214.756 189.506 C 214.756 189.313,214.957 189.156,215.204 189.156 C 215.450 189.156,216.083 188.756,216.610 188.267 C 217.138 187.778,217.711 187.378,217.884 187.378 C 218.363 187.378,225.956 179.747,225.956 179.265 C 225.956 179.034,226.064 178.884,226.196 178.933 C 226.494 179.044,227.848 177.058,228.924 174.933 C 229.370 174.053,230.029 172.773,230.389 172.089 C 231.837 169.337,231.783 157.511,230.322 157.511 C 230.146 157.511,230.106 157.344,230.232 157.140 C 230.358 156.936,230.268 156.536,230.032 156.251 C 229.795 155.966,229.741 155.731,229.912 155.728 C 230.083 155.725,230.058 155.605,229.857 155.461 C 229.657 155.318,228.788 153.760,227.928 152.000 C 227.067 150.240,225.911 148.330,225.359 147.755 C 224.807 147.180,224.356 146.524,224.356 146.298 C 224.356 146.072,224.076 145.554,223.733 145.148 C 223.138 144.442,222.397 143.520,220.444 141.058 C 219.956 140.441,219.196 139.593,218.756 139.172 C 217.226 137.710,216.760 137.764,231.908 137.651 C 241.953 137.576,244.232 137.646,244.109 138.024 M192.919 138.667 C 193.391 138.667,193.778 138.507,193.778 138.311 C 193.778 138.084,196.886 137.957,202.400 137.959 L 211.022 137.963 211.911 139.962 C 212.400 141.062,213.080 142.285,213.422 142.680 C 214.448 143.864,214.125 144.005,212.934 142.893 C 212.324 142.322,211.644 141.884,211.423 141.918 C 211.203 141.953,210.542 141.772,209.956 141.518 C 208.440 140.860,195.021 140.582,192.178 141.150 C 191.004 141.384,189.804 141.583,189.511 141.592 C 189.218 141.601,188.785 141.760,188.549 141.946 C 188.313 142.131,187.964 142.187,187.773 142.069 C 187.583 141.951,187.339 141.997,187.232 142.170 C 187.082 142.412,185.345 142.941,184.798 142.911 C 184.422 142.891,179.670 144.787,179.003 145.224 C 178.539 145.529,177.903 145.778,177.592 145.778 C 177.280 145.778,177.124 145.938,177.244 146.133 C 177.365 146.329,177.226 146.489,176.935 146.489 C 176.644 146.489,176.187 146.708,175.920 146.975 C 175.652 147.243,175.041 147.584,174.561 147.733 C 173.802 147.969,172.348 148.854,171.200 149.778 C 169.211 151.380,167.274 152.461,166.921 152.167 C 166.696 151.981,166.428 151.912,166.326 152.015 C 166.223 152.118,165.643 151.636,165.036 150.945 C 164.429 150.254,163.776 149.689,163.584 149.689 C 163.392 149.689,163.107 149.473,162.951 149.210 C 162.795 148.947,161.916 148.164,161.000 147.470 C 160.083 146.776,159.387 146.151,159.453 146.082 C 159.519 146.012,159.349 145.749,159.075 145.497 C 158.802 145.245,158.578 145.105,158.578 145.187 C 158.578 145.269,157.639 144.435,156.491 143.334 C 155.344 142.234,153.704 140.717,152.847 139.963 C 151.990 139.209,151.489 138.699,151.733 138.829 C 151.978 138.958,152.178 138.918,152.178 138.739 C 152.178 138.545,160.165 138.443,171.911 138.487 C 186.068 138.540,191.652 138.450,191.673 138.169 C 191.689 137.939,191.775 137.961,191.880 138.222 C 191.979 138.467,192.446 138.667,192.919 138.667 M101.689 145.871 C 101.689 146.042,101.369 146.080,100.978 145.956 C 100.570 145.826,100.267 145.892,100.267 146.109 C 100.267 146.318,99.942 146.489,99.545 146.489 C 98.912 146.489,97.070 147.165,93.333 148.769 C 92.747 149.021,91.747 149.430,91.111 149.679 C 90.476 149.927,89.956 150.271,89.956 150.443 C 89.956 150.615,89.676 150.761,89.333 150.767 C 88.991 150.773,87.755 151.253,86.587 151.833 C 85.418 152.414,84.249 152.889,83.988 152.889 C 83.727 152.889,83.611 153.047,83.731 153.240 C 83.851 153.435,83.722 153.505,83.442 153.398 C 83.164 153.291,82.716 153.419,82.446 153.683 C 82.046 154.074,78.892 155.742,78.222 155.917 C 77.374 156.138,75.022 157.285,75.022 157.477 C 75.022 157.611,74.262 158.031,73.333 158.410 C 72.404 158.789,70.364 159.771,68.800 160.592 C 67.236 161.413,64.756 162.687,63.289 163.423 C 61.822 164.159,60.542 164.858,60.444 164.977 C 60.347 165.096,59.707 165.475,59.022 165.821 C 58.338 166.167,56.899 166.912,55.826 167.476 L 53.874 168.503 52.270 166.746 C 49.522 163.735,48.806 162.868,48.949 162.725 C 49.025 162.649,48.581 162.045,47.961 161.382 C 47.341 160.720,46.347 159.218,45.752 158.044 C 45.156 156.871,44.218 155.459,43.668 154.906 C 43.117 154.353,42.667 153.685,42.667 153.421 C 42.667 151.559,36.982 150.951,29.856 152.050 C 27.951 152.344,27.085 154.088,27.231 157.333 C 27.376 160.530,27.393 160.614,28.582 164.089 C 28.917 165.067,29.238 166.027,29.296 166.222 C 29.615 167.297,30.226 168.494,30.562 168.701 C 30.772 168.831,30.854 169.086,30.742 169.266 C 30.631 169.446,30.941 169.995,31.431 170.486 C 31.922 170.976,32.243 171.378,32.145 171.378 C 31.868 171.378,33.868 174.190,35.687 176.359 L 37.324 178.311 36.351 179.109 C 35.816 179.548,35.178 179.908,34.933 179.909 C 34.689 179.910,34.489 180.071,34.489 180.267 C 34.489 180.462,34.258 180.622,33.976 180.622 C 33.693 180.622,33.242 180.936,32.973 181.320 C 32.704 181.705,31.581 182.563,30.476 183.228 C 29.371 183.893,28.535 184.505,28.617 184.588 C 28.700 184.670,28.438 184.944,28.036 185.195 C 27.433 185.572,27.349 185.569,27.563 185.182 C 27.706 184.923,27.410 185.111,26.904 185.600 C 26.398 186.089,25.324 186.969,24.517 187.556 C 23.710 188.142,22.358 189.302,21.512 190.133 C 20.666 190.964,19.882 191.644,19.770 191.644 C 19.473 191.644,13.511 197.774,13.511 198.079 C 13.511 198.221,12.911 199.111,12.178 200.057 C 9.261 203.821,8.021 207.866,9.534 208.676 C 10.210 209.038,14.587 207.222,15.276 206.294 C 15.611 205.844,18.244 204.262,20.356 203.245 C 21.480 202.702,22.400 202.101,22.400 201.908 C 22.400 201.716,22.560 201.657,22.756 201.778 C 22.951 201.899,23.111 201.828,23.111 201.621 C 23.111 201.414,23.338 201.244,23.615 201.244 C 23.892 201.244,24.172 201.083,24.238 200.885 C 24.304 200.688,24.746 200.452,25.219 200.360 C 25.693 200.269,26.210 199.991,26.368 199.742 C 26.526 199.493,26.658 199.434,26.661 199.611 C 26.664 199.788,26.977 199.652,27.355 199.309 C 27.734 198.966,28.197 198.781,28.385 198.896 C 28.572 199.012,28.816 198.871,28.927 198.582 C 29.038 198.293,29.344 198.139,29.607 198.240 C 29.869 198.341,30.556 198.018,31.131 197.523 C 31.707 197.028,32.373 196.623,32.611 196.623 C 32.850 196.622,33.570 196.335,34.211 195.984 C 34.853 195.632,36.052 195.128,36.877 194.864 C 37.702 194.599,38.300 194.260,38.208 194.110 C 38.115 193.960,38.877 193.558,39.901 193.218 C 40.925 192.878,42.510 192.225,43.422 191.767 C 44.335 191.308,45.338 190.933,45.652 190.933 C 45.965 190.933,46.222 190.799,46.222 190.634 C 46.222 190.469,46.902 190.117,47.733 189.852 C 49.452 189.302,50.490 189.153,50.384 189.472 C 50.344 189.591,50.446 189.713,50.611 189.743 C 50.776 189.773,51.336 190.192,51.855 190.674 C 52.375 191.156,53.523 191.965,54.406 192.471 C 55.289 192.978,56.352 193.710,56.768 194.097 C 57.184 194.485,57.621 194.705,57.740 194.586 C 57.859 194.467,57.956 194.557,57.956 194.785 C 57.956 195.013,58.196 195.200,58.489 195.200 C 58.782 195.200,59.022 195.360,59.022 195.556 C 59.022 195.751,59.206 195.911,59.430 195.911 C 59.654 195.911,60.521 196.471,61.357 197.156 C 62.192 197.840,62.965 198.400,63.075 198.400 C 63.185 198.400,64.151 198.960,65.220 199.644 C 66.290 200.329,67.294 200.889,67.451 200.889 C 67.607 200.889,68.189 201.370,68.744 201.957 C 69.298 202.545,69.881 202.945,70.039 202.848 C 70.196 202.751,70.421 202.920,70.538 203.225 C 70.655 203.529,70.880 203.698,71.039 203.600 C 71.197 203.502,71.927 203.972,72.661 204.644 C 73.395 205.317,74.146 205.867,74.331 205.867 C 74.516 205.867,74.667 205.994,74.667 206.149 C 74.667 206.304,75.465 206.904,76.440 207.482 C 77.416 208.060,78.307 208.816,78.421 209.161 C 78.536 209.506,78.777 209.696,78.959 209.584 C 79.140 209.472,79.289 209.536,79.289 209.727 C 79.289 210.291,83.674 213.971,84.633 214.212 C 86.085 214.577,86.908 212.795,86.614 209.922 C 86.347 207.321,85.090 202.968,84.493 202.583 C 84.271 202.440,84.213 202.320,84.365 202.317 C 84.722 202.310,83.665 200.265,82.854 199.395 C 82.509 199.025,81.930 198.170,81.566 197.495 C 81.203 196.819,80.781 196.267,80.630 196.267 C 80.479 196.267,80.356 196.027,80.356 195.733 C 80.356 195.440,80.204 195.200,80.019 195.200 C 79.835 195.200,78.760 194.000,77.631 192.533 C 76.502 191.067,75.441 189.867,75.275 189.867 C 75.108 189.867,74.731 189.627,74.438 189.333 C 74.145 189.040,74.026 188.800,74.175 188.800 C 74.324 188.800,72.756 187.137,70.691 185.104 L 66.936 181.408 70.293 180.051 C 72.140 179.305,73.729 178.568,73.824 178.414 C 73.920 178.259,74.288 178.133,74.644 178.133 C 75.000 178.133,75.488 177.895,75.730 177.604 C 75.972 177.313,76.311 177.162,76.485 177.269 C 76.658 177.377,76.800 177.295,76.800 177.088 C 76.800 176.881,77.019 176.711,77.287 176.711 C 77.910 176.711,82.985 174.496,83.134 174.160 C 83.196 174.021,83.476 173.995,83.756 174.102 C 84.037 174.210,84.269 174.161,84.271 173.994 C 84.273 173.826,84.953 173.395,85.782 173.036 C 88.829 171.715,90.505 170.875,91.172 170.333 C 91.752 169.862,91.811 169.858,91.559 170.311 C 91.388 170.620,91.624 170.535,92.120 170.110 C 92.592 169.706,94.178 168.838,95.644 168.182 C 97.111 167.525,98.364 166.856,98.430 166.694 C 98.495 166.532,98.881 166.400,99.289 166.400 C 99.696 166.400,99.917 166.287,99.779 166.149 C 99.640 166.011,99.993 165.651,100.562 165.349 C 103.617 163.727,104.705 163.067,105.383 162.423 C 105.796 162.031,106.773 161.265,107.556 160.721 C 110.251 158.846,111.567 154.440,109.867 152.984 C 109.476 152.649,109.156 152.240,109.156 152.075 C 109.156 151.910,108.756 151.251,108.268 150.612 C 107.780 149.972,107.487 149.343,107.617 149.213 C 107.746 149.084,107.685 148.978,107.480 148.978 C 107.276 148.978,106.916 148.514,106.681 147.946 C 105.866 145.978,101.689 144.242,101.689 145.871 M217.244 151.575 C 217.244 151.930,217.380 152.136,217.545 152.034 C 217.710 151.932,218.390 153.563,219.056 155.658 C 221.617 163.714,220.520 168.038,214.798 172.445 C 210.689 175.609,209.649 176.356,209.350 176.356 C 209.162 176.356,208.342 176.891,207.527 177.546 C 206.711 178.201,204.974 179.272,203.666 179.926 C 202.358 180.581,201.385 181.272,201.502 181.463 C 201.626 181.663,201.471 181.715,201.136 181.587 C 200.817 181.465,200.459 181.522,200.340 181.714 C 200.222 181.906,199.672 181.579,199.120 180.987 C 198.567 180.395,197.979 179.912,197.813 179.914 C 197.647 179.915,196.728 179.075,195.772 178.047 C 194.815 177.019,194.157 176.418,194.309 176.711 C 194.462 177.004,193.684 176.338,192.582 175.231 C 191.480 174.124,190.578 173.276,190.578 173.348 C 190.578 173.420,190.203 173.126,189.745 172.695 C 187.971 171.025,186.311 169.630,186.311 169.810 C 186.311 169.913,185.543 169.228,184.605 168.288 C 183.666 167.347,182.532 166.313,182.085 165.989 C 181.277 165.404,181.276 165.399,182.012 165.166 C 182.418 165.037,182.952 164.740,183.198 164.505 C 183.907 163.829,185.733 162.702,186.253 162.619 C 186.515 162.577,186.995 162.329,187.320 162.067 C 188.785 160.889,192.742 159.460,196.472 158.760 C 196.848 158.690,197.156 158.607,197.156 158.576 C 197.156 158.545,197.556 158.466,198.044 158.401 C 198.533 158.335,199.653 158.121,200.533 157.925 C 201.413 157.729,203.173 157.384,204.444 157.157 C 212.132 155.789,212.931 155.451,213.969 153.116 C 214.313 152.340,214.323 151.980,214.008 151.601 C 213.362 150.822,213.391 146.183,214.044 145.776 C 214.611 145.424,217.244 150.196,217.244 151.575 M317.511 151.474 C 316.240 151.650,314.800 151.906,314.311 152.042 C 313.013 152.403,312.825 152.447,311.574 152.680 C 310.948 152.797,309.988 153.083,309.441 153.315 C 308.893 153.547,308.284 153.746,308.089 153.757 C 307.893 153.769,307.536 153.963,307.295 154.190 C 307.055 154.417,306.095 154.890,305.162 155.241 C 303.521 155.858,296.758 159.732,295.968 160.507 C 295.754 160.717,295.049 161.289,294.400 161.778 C 293.751 162.267,293.017 162.867,292.769 163.111 C 292.521 163.356,292.219 163.556,292.098 163.556 C 291.664 163.556,289.958 165.492,290.074 165.853 C 290.139 166.056,290.081 166.111,289.945 165.975 C 289.688 165.718,286.044 169.111,286.044 169.608 C 286.044 169.764,285.604 170.237,285.067 170.660 C 284.529 171.083,284.089 171.641,284.089 171.899 C 284.089 172.157,283.861 172.456,283.582 172.563 C 283.304 172.670,282.816 173.305,282.498 173.975 C 282.180 174.645,281.568 175.571,281.138 176.033 C 280.708 176.494,280.406 176.876,280.467 176.881 C 280.672 176.896,280.076 178.303,279.636 178.844 C 279.398 179.138,278.850 180.336,278.419 181.507 C 277.988 182.678,277.482 183.821,277.294 184.047 C 277.106 184.273,276.977 184.595,277.007 184.763 C 277.037 184.930,277.030 185.147,276.990 185.244 C 276.872 185.539,276.591 187.148,276.515 187.966 C 276.476 188.387,276.303 188.644,276.129 188.537 C 275.949 188.426,275.893 190.070,275.998 192.379 C 276.100 194.619,276.342 196.470,276.542 196.536 C 276.740 196.602,276.814 196.994,276.706 197.406 C 276.560 197.966,276.630 198.082,276.982 197.864 C 277.325 197.652,277.392 197.734,277.227 198.164 C 277.102 198.489,277.124 198.756,277.276 198.756 C 277.428 198.756,277.846 199.436,278.204 200.267 C 279.169 202.503,284.346 207.150,285.068 206.428 C 285.182 206.314,285.529 206.438,285.838 206.705 C 287.709 208.315,302.222 208.427,302.222 206.831 C 302.222 206.669,302.379 206.633,302.570 206.751 C 302.762 206.869,303.252 206.788,303.660 206.569 C 304.403 206.172,305.566 205.837,306.400 205.779 C 306.644 205.762,306.844 205.647,306.844 205.523 C 306.844 205.400,307.444 205.084,308.178 204.823 C 310.503 203.993,314.667 201.990,314.668 201.701 C 314.669 201.548,315.389 201.126,316.268 200.765 C 317.147 200.403,317.867 199.937,317.867 199.728 C 317.867 199.519,317.963 199.444,318.080 199.561 C 318.197 199.679,319.277 199.087,320.480 198.247 C 321.683 197.407,323.307 196.300,324.089 195.787 C 325.432 194.906,327.576 193.139,329.413 191.399 C 329.866 190.971,330.333 190.718,330.451 190.836 C 330.570 190.955,330.667 190.858,330.667 190.621 C 330.667 190.180,332.235 188.444,332.633 188.444 C 332.956 188.444,335.134 186.215,334.986 186.037 C 334.917 185.954,335.677 185.025,336.675 183.972 C 337.672 182.919,338.489 181.983,338.489 181.891 C 338.489 181.800,338.969 181.013,339.556 180.144 C 340.142 179.275,340.622 178.451,340.622 178.314 C 340.622 178.177,340.959 177.593,341.370 177.015 C 342.889 174.882,343.642 169.265,342.731 166.868 C 342.521 166.317,342.373 165.815,342.400 165.751 C 342.498 165.526,340.267 163.556,339.914 163.556 C 339.253 163.556,339.547 162.621,340.482 161.751 C 342.019 160.321,342.169 159.450,341.171 157.753 C 340.358 156.372,339.796 155.867,337.956 154.864 C 337.564 154.651,336.813 154.186,336.285 153.832 C 335.758 153.477,335.118 153.144,334.863 153.092 C 334.608 153.039,334.160 152.895,333.867 152.772 C 330.971 151.551,322.051 150.844,317.511 151.474 M144.184 156.484 C 145.158 157.287,146.073 158.127,146.217 158.350 C 146.360 158.573,146.480 158.643,146.483 158.506 C 146.486 158.369,147.328 159.049,148.354 160.017 C 149.380 160.985,150.420 161.778,150.666 161.778 C 150.911 161.778,151.111 162.044,151.111 162.370 C 151.111 162.696,151.206 162.868,151.321 162.753 C 151.437 162.637,152.075 163.051,152.740 163.671 C 153.405 164.292,154.347 165.150,154.832 165.578 C 155.661 166.309,155.683 166.416,155.193 167.355 C 154.906 167.906,154.670 168.565,154.669 168.821 C 154.668 169.077,154.507 169.188,154.311 169.067 C 154.116 168.946,153.936 169.096,153.911 169.401 C 153.844 170.244,153.786 170.429,153.342 171.225 C 151.504 174.525,150.519 184.748,151.614 189.156 C 151.930 190.427,152.256 191.740,152.338 192.074 C 153.178 195.499,157.334 201.494,160.127 203.309 C 160.937 203.836,161.653 204.387,161.719 204.533 C 161.784 204.680,162.042 204.800,162.293 204.800 C 162.543 204.800,163.170 205.132,163.685 205.537 C 164.201 205.942,164.622 206.163,164.622 206.027 C 164.622 205.891,164.842 205.962,165.110 206.184 C 168.148 208.705,186.094 208.666,187.773 206.134 C 187.893 205.954,188.053 205.834,188.129 205.869 C 188.313 205.954,189.997 205.287,192.178 204.268 C 193.156 203.811,194.316 203.333,194.756 203.205 C 195.196 203.078,195.556 202.816,195.556 202.622 C 195.556 202.428,195.716 202.368,195.911 202.489 C 196.107 202.610,196.267 202.539,196.267 202.332 C 196.267 202.125,196.507 201.956,196.800 201.956 C 197.093 201.956,197.333 201.778,197.333 201.561 C 197.333 201.343,197.613 201.475,197.956 201.854 C 198.298 202.232,199.378 203.168,200.356 203.933 C 201.333 204.698,202.425 205.686,202.781 206.129 C 203.138 206.571,203.572 206.933,203.747 206.933 C 204.079 206.933,205.070 207.748,207.099 209.689 C 207.764 210.324,208.461 210.844,208.649 210.844 C 208.837 210.844,209.083 211.084,209.195 211.378 C 209.308 211.671,209.587 211.911,209.815 211.911 C 210.043 211.911,210.600 212.311,211.053 212.800 C 211.506 213.289,212.054 213.689,212.271 213.689 C 212.487 213.689,212.570 213.842,212.454 214.029 C 212.338 214.217,212.696 214.604,213.250 214.890 C 213.804 215.177,214.969 216.103,215.839 216.949 C 216.710 217.795,217.502 218.490,217.600 218.493 C 218.091 218.509,220.046 220.251,219.767 220.424 C 219.477 220.603,210.666 220.528,203.200 220.283 C 201.636 220.231,195.476 220.080,189.511 219.947 C 183.547 219.814,176.827 219.641,174.578 219.562 C 172.329 219.484,164.329 219.310,156.800 219.176 C 149.271 219.042,143.060 218.888,142.997 218.834 C 142.934 218.779,142.833 214.599,142.772 209.545 C 142.711 204.491,142.545 200.076,142.404 199.733 C 142.249 199.360,142.304 199.111,142.540 199.111 C 142.756 199.111,142.933 198.871,142.933 198.578 C 142.933 198.284,142.791 198.044,142.617 198.044 C 142.443 198.044,142.285 194.884,142.264 191.022 C 142.207 180.266,141.817 156.722,141.680 155.822 C 141.502 154.652,142.182 154.832,144.184 156.484 M336.724 169.407 C 336.473 169.709,336.367 169.956,336.487 169.956 C 336.762 169.956,335.583 171.357,333.524 173.477 C 332.650 174.376,331.974 175.243,332.021 175.404 C 332.068 175.565,331.950 175.600,331.758 175.482 C 331.566 175.363,331.144 175.670,330.821 176.163 C 330.498 176.657,330.121 176.991,329.985 176.907 C 329.848 176.822,329.292 177.224,328.749 177.799 C 328.206 178.374,327.623 178.844,327.452 178.844 C 326.960 178.844,324.633 180.514,324.839 180.720 C 324.941 180.822,324.374 181.193,323.579 181.544 C 322.784 181.894,322.133 182.285,322.133 182.412 C 322.133 182.539,321.493 182.835,320.711 183.069 C 319.929 183.303,319.289 183.649,319.289 183.836 C 319.289 184.024,319.154 184.138,318.989 184.089 C 318.824 184.040,318.224 184.353,317.656 184.785 C 317.087 185.217,316.494 185.564,316.337 185.556 C 316.180 185.549,315.700 185.763,315.270 186.031 C 314.840 186.300,313.289 186.983,311.822 187.548 C 310.356 188.114,308.916 188.767,308.622 189.000 C 308.329 189.232,307.808 189.376,307.465 189.320 C 307.122 189.264,306.920 189.346,307.017 189.503 C 307.114 189.660,306.596 189.901,305.866 190.038 C 305.136 190.175,304.378 190.388,304.180 190.511 C 303.729 190.794,303.661 190.812,300.444 191.483 C 295.216 192.575,293.185 192.425,293.753 190.987 C 294.630 188.767,295.514 187.070,296.005 186.662 C 296.296 186.421,296.533 186.042,296.533 185.820 C 296.533 185.597,296.869 185.206,297.279 184.950 C 297.689 184.694,297.935 184.394,297.825 184.284 C 297.544 184.003,305.083 176.679,305.431 176.895 C 305.588 176.992,305.771 176.935,305.836 176.768 C 306.004 176.343,312.225 172.444,312.737 172.444 C 312.968 172.444,313.349 172.214,313.582 171.932 C 313.816 171.651,314.215 171.500,314.469 171.597 C 314.723 171.695,315.180 171.525,315.484 171.220 C 315.789 170.916,316.539 170.667,317.151 170.667 C 317.794 170.667,318.172 170.518,318.047 170.315 C 317.920 170.109,318.073 170.057,318.417 170.189 C 318.741 170.313,319.109 170.262,319.236 170.075 C 319.699 169.394,324.311 168.889,330.064 168.889 C 333.925 168.889,336.040 168.756,336.197 168.502 C 336.363 168.234,336.549 168.229,336.807 168.487 C 337.066 168.746,337.040 169.026,336.724 169.407 M173.319 181.156 C 174.227 182.001,175.486 183.063,178.133 185.217 C 179.209 186.092,180.260 186.976,180.470 187.182 C 180.680 187.387,181.439 187.956,182.157 188.444 C 183.424 189.308,183.922 190.550,183.022 190.605 C 182.778 190.620,182.258 190.705,181.867 190.794 C 173.575 192.676,168.646 189.584,169.279 182.898 C 169.410 181.509,169.702 180.029,169.928 179.608 L 170.337 178.842 171.446 179.643 C 172.055 180.084,172.898 180.764,173.319 181.156 M44.440 248.290 C 43.079 249.354,42.727 250.508,42.699 253.986 C 42.684 255.876,42.808 257.422,42.976 257.422 C 43.143 257.422,43.277 257.782,43.274 258.222 C 43.270 258.662,43.547 259.653,43.890 260.425 C 44.232 261.197,44.565 262.105,44.631 262.443 C 44.696 262.781,45.019 263.470,45.349 263.974 C 45.679 264.477,45.848 264.889,45.725 264.889 C 45.528 264.889,47.165 267.621,47.641 268.089 C 47.741 268.187,48.373 269.067,49.046 270.044 C 49.720 271.022,50.600 272.151,51.002 272.552 C 51.404 272.954,52.066 273.747,52.472 274.315 L 53.211 275.349 51.939 276.517 C 51.239 277.160,50.489 277.686,50.272 277.687 C 50.055 277.688,49.341 278.237,48.686 278.908 C 48.030 279.578,47.364 280.046,47.205 279.948 C 47.046 279.850,46.960 279.974,47.013 280.224 C 47.067 280.474,46.924 280.686,46.695 280.695 C 46.466 280.704,45.853 281.081,45.333 281.534 C 44.812 281.987,43.880 282.666,43.260 283.044 C 42.640 283.422,42.282 283.731,42.465 283.732 C 42.647 283.733,42.098 284.253,41.245 284.889 C 39.421 286.247,33.778 291.856,33.778 292.310 C 33.778 292.481,33.643 292.622,33.479 292.622 C 33.315 292.622,32.755 293.220,32.235 293.951 C 31.714 294.682,31.288 295.122,31.287 294.929 C 31.285 294.736,30.974 295.048,30.596 295.622 C 30.217 296.197,29.987 296.797,30.086 296.956 C 30.184 297.114,30.095 297.244,29.888 297.244 C 29.681 297.244,29.511 297.484,29.511 297.778 C 29.511 298.071,29.383 298.311,29.226 298.311 C 28.945 298.311,27.182 301.657,27.428 301.723 C 27.498 301.742,27.381 301.982,27.167 302.256 C 26.953 302.531,26.746 303.516,26.706 304.444 L 26.634 306.133 27.874 306.133 C 28.556 306.133,29.214 305.971,29.337 305.772 C 29.460 305.573,29.710 305.503,29.894 305.617 C 30.077 305.730,30.323 305.573,30.441 305.267 C 30.558 304.961,30.877 304.711,31.149 304.711 C 31.422 304.711,31.644 304.551,31.644 304.356 C 31.644 304.160,31.802 304.000,31.995 304.000 C 32.394 304.000,35.768 301.975,36.723 301.162 C 37.071 300.865,37.471 300.622,37.612 300.622 C 37.752 300.621,38.380 300.256,39.006 299.809 C 39.633 299.362,40.633 298.826,41.229 298.619 C 41.824 298.411,42.311 298.097,42.311 297.921 C 42.311 297.744,42.543 297.600,42.827 297.600 C 43.110 297.600,43.506 297.320,43.705 296.978 C 43.992 296.486,44.072 296.467,44.089 296.889 C 44.106 297.307,44.190 297.286,44.477 296.793 C 44.679 296.446,44.994 296.256,45.177 296.369 C 45.361 296.482,45.511 296.430,45.511 296.253 C 45.511 296.075,46.191 295.636,47.022 295.276 C 47.853 294.916,48.773 294.441,49.067 294.219 C 49.360 293.997,50.281 293.601,51.113 293.339 C 51.945 293.077,52.549 292.786,52.456 292.693 C 52.215 292.452,55.232 290.880,55.556 291.078 C 55.702 291.168,55.822 291.073,55.822 290.865 C 55.822 290.658,56.102 290.479,56.444 290.466 C 56.787 290.454,57.947 289.980,59.022 289.412 C 65.774 285.850,66.243 285.801,68.984 288.362 C 69.562 288.901,70.437 289.444,70.928 289.567 C 71.420 289.690,71.822 289.948,71.822 290.140 C 71.822 290.332,71.989 290.489,72.193 290.489 C 72.396 290.489,72.913 290.815,73.341 291.214 C 73.769 291.612,74.482 292.030,74.926 292.141 C 75.370 292.253,75.733 292.496,75.733 292.682 C 75.733 292.868,75.877 292.931,76.052 292.823 C 76.227 292.715,76.461 292.864,76.573 293.154 C 76.684 293.445,77.734 294.147,78.905 294.714 C 80.077 295.282,81.461 296.081,81.982 296.490 C 82.502 296.900,83.069 297.147,83.242 297.041 C 83.414 296.934,83.556 296.987,83.556 297.158 C 83.556 297.328,84.796 298.076,86.311 298.820 C 87.827 299.563,89.333 300.405,89.658 300.690 C 89.983 300.976,90.479 301.243,90.760 301.284 C 91.041 301.326,91.695 301.637,92.213 301.977 C 92.732 302.316,93.156 302.517,93.156 302.423 C 93.156 302.171,96.852 304.055,97.102 304.435 C 97.220 304.613,97.540 304.795,97.813 304.841 C 98.087 304.886,98.711 305.144,99.200 305.413 C 99.689 305.683,101.129 305.915,102.400 305.930 L 104.711 305.956 104.771 304.747 C 104.831 303.540,104.365 301.868,103.872 301.518 C 103.728 301.417,103.152 300.533,102.593 299.556 C 102.033 298.578,101.361 297.650,101.099 297.493 C 100.837 297.337,100.618 297.017,100.613 296.782 C 100.609 296.548,99.660 295.356,98.506 294.133 C 97.352 292.911,96.449 291.911,96.500 291.911 C 96.709 291.911,91.533 286.704,91.276 286.656 C 90.894 286.584,90.263 285.906,89.294 284.529 C 88.846 283.891,88.331 283.461,88.151 283.572 C 87.970 283.684,87.822 283.526,87.822 283.221 C 87.822 282.916,87.651 282.667,87.443 282.667 C 87.234 282.667,86.538 282.110,85.896 281.429 C 85.253 280.748,84.624 280.294,84.497 280.421 C 84.370 280.548,84.267 280.387,84.267 280.062 C 84.267 279.738,83.963 279.283,83.593 279.052 C 82.756 278.529,83.298 277.850,84.846 277.481 C 85.407 277.347,86.107 277.040,86.400 276.797 C 86.693 276.555,87.531 276.165,88.262 275.930 C 88.992 275.696,89.682 275.355,89.794 275.174 C 89.906 274.993,90.265 274.844,90.591 274.844 C 91.294 274.844,96.099 273.061,96.356 272.705 C 96.453 272.570,97.173 272.255,97.956 272.005 C 98.738 271.756,99.538 271.434,99.733 271.290 C 99.929 271.145,100.969 270.748,102.044 270.407 C 103.120 270.066,104.640 269.500,105.422 269.150 C 107.216 268.348,114.484 265.541,114.996 265.453 C 115.206 265.417,115.778 265.160,116.267 264.882 C 116.756 264.603,117.791 264.083,118.568 263.725 C 121.337 262.451,121.415 262.239,121.481 255.831 C 121.541 249.973,121.305 248.889,119.975 248.889 C 119.728 248.889,119.459 248.689,119.378 248.444 C 119.173 247.832,110.663 247.821,110.284 248.433 C 110.140 248.666,109.707 248.838,109.322 248.815 C 108.455 248.764,102.907 250.129,100.243 251.050 C 99.154 251.426,98.014 251.733,97.709 251.733 C 97.403 251.733,96.962 251.964,96.729 252.246 C 96.495 252.527,96.035 252.662,95.707 252.544 C 95.379 252.427,95.227 252.459,95.368 252.615 C 95.509 252.771,94.309 253.356,92.701 253.916 C 89.580 255.001,87.431 255.982,87.062 256.490 C 86.937 256.662,86.671 256.701,86.470 256.577 C 86.269 256.453,86.052 256.472,85.986 256.620 C 85.920 256.768,84.187 257.686,82.133 258.660 C 80.080 259.635,78.000 260.683,77.511 260.991 C 77.022 261.298,75.902 261.850,75.022 262.217 C 74.142 262.584,73.262 263.055,73.065 263.264 C 72.869 263.473,72.471 263.697,72.180 263.762 C 71.889 263.826,71.532 264.066,71.387 264.295 C 71.241 264.524,71.120 264.582,71.117 264.424 C 71.114 264.267,70.762 264.382,70.336 264.681 C 69.427 265.317,66.119 262.316,64.731 259.594 C 64.332 258.812,63.782 258.043,63.509 257.886 C 63.025 257.608,62.727 257.126,60.635 253.255 C 60.083 252.234,59.495 251.483,59.327 251.587 C 59.159 251.691,59.022 251.587,59.022 251.357 C 59.022 250.769,56.894 248.410,56.211 248.240 C 54.660 247.856,44.943 247.897,44.440 248.290 M193.395 254.645 C 193.170 255.563,193.188 256.000,193.454 256.000 C 193.632 256.000,193.778 256.320,193.778 256.711 C 193.778 257.102,193.938 257.422,194.133 257.422 C 194.329 257.422,194.488 257.622,194.487 257.867 C 194.486 258.201,193.105 258.322,188.887 258.356 C 184.998 258.387,182.529 258.584,180.800 259.000 C 179.431 259.329,178.071 259.639,177.778 259.688 C 177.484 259.737,176.905 259.962,176.491 260.187 C 176.077 260.413,175.628 260.487,175.494 260.353 C 175.360 260.219,175.127 260.309,174.977 260.552 C 174.826 260.795,174.386 261.055,173.999 261.130 C 172.537 261.412,167.111 263.848,167.111 264.222 C 167.111 264.373,166.289 264.909,165.283 265.414 C 164.278 265.919,163.013 266.687,162.471 267.122 C 161.181 268.156,160.236 268.857,159.249 269.511 C 158.807 269.804,158.060 270.444,157.588 270.933 C 157.117 271.422,156.587 271.822,156.410 271.822 C 156.233 271.822,156.049 271.964,156.000 272.136 C 155.951 272.309,154.951 273.463,153.778 274.702 C 151.054 277.577,147.954 281.751,147.269 283.467 C 146.976 284.200,146.604 284.800,146.442 284.800 C 146.062 284.800,144.681 287.496,144.933 287.747 C 145.038 287.852,144.894 288.312,144.613 288.769 C 144.332 289.226,143.829 290.560,143.497 291.733 C 143.164 292.907,142.736 294.153,142.545 294.503 C 142.354 294.854,142.291 295.290,142.404 295.473 C 142.517 295.657,142.387 296.570,142.115 297.503 C 141.774 298.672,141.660 300.528,141.748 303.467 C 141.903 308.640,141.938 308.978,142.322 308.978 C 142.489 308.978,142.524 309.298,142.400 309.689 C 142.271 310.097,142.336 310.400,142.554 310.400 C 142.763 310.400,142.933 310.634,142.933 310.921 C 142.933 312.524,145.262 317.855,146.805 319.782 C 147.413 320.542,147.911 321.305,147.911 321.476 C 147.911 321.987,155.086 328.889,155.616 328.889 C 155.748 328.889,156.108 329.108,156.416 329.376 C 157.294 330.137,161.847 331.835,162.933 331.807 C 163.471 331.792,163.911 331.924,163.911 332.099 C 163.911 332.275,166.066 332.384,168.711 332.342 C 171.351 332.301,173.511 332.164,173.511 332.038 C 173.511 331.912,173.871 331.812,174.311 331.815 C 175.463 331.825,179.912 330.778,181.447 330.137 C 182.167 329.836,182.756 329.705,182.756 329.844 C 182.756 329.984,182.948 329.906,183.182 329.671 C 183.417 329.436,183.903 329.244,184.261 329.244 C 184.620 329.244,185.300 328.992,185.772 328.682 C 186.244 328.373,186.838 328.077,187.093 328.023 C 187.347 327.970,188.150 327.663,188.877 327.341 C 189.605 327.019,190.365 326.756,190.566 326.756 C 190.768 326.756,190.933 326.596,190.933 326.400 C 190.933 326.204,191.213 326.039,191.556 326.033 C 191.898 326.027,192.488 325.787,192.868 325.500 C 193.248 325.213,193.790 324.978,194.073 324.978 C 194.356 324.978,194.818 324.698,195.098 324.356 C 195.379 324.013,195.498 323.948,195.364 324.209 C 195.229 324.471,195.801 324.191,196.635 323.587 C 197.469 322.983,198.291 322.489,198.461 322.489 C 198.745 322.489,201.543 320.782,201.956 320.357 C 202.477 319.819,204.795 318.222,205.053 318.222 C 205.219 318.222,205.579 317.911,205.853 317.530 C 206.127 317.150,206.483 316.919,206.643 317.018 C 206.802 317.117,206.933 317.019,206.933 316.800 C 206.933 316.581,207.104 316.508,207.313 316.637 C 207.522 316.766,207.780 316.536,207.888 316.125 C 207.995 315.714,208.270 315.378,208.499 315.378 C 208.962 315.378,211.685 312.843,213.855 310.393 C 215.468 308.570,216.497 306.760,217.438 304.089 C 217.800 303.062,218.211 302.222,218.352 302.222 C 219.397 302.222,219.771 290.991,218.837 287.633 C 218.540 286.564,218.232 285.289,218.153 284.800 C 217.970 283.661,216.711 280.176,215.616 277.776 C 215.147 276.748,214.802 275.841,214.848 275.760 C 214.895 275.679,214.593 275.240,214.177 274.784 C 213.087 273.588,212.150 271.409,212.491 270.862 C 214.122 268.250,211.391 264.441,206.075 261.914 C 204.689 261.255,202.916 260.139,202.133 259.433 C 201.351 258.727,200.598 258.146,200.461 258.142 C 200.323 258.137,199.820 257.743,199.343 257.266 C 198.866 256.789,198.401 256.473,198.311 256.563 C 198.220 256.654,197.943 256.484,197.696 256.186 C 197.449 255.888,197.039 255.644,196.786 255.644 C 196.533 255.644,196.273 255.489,196.207 255.300 C 196.101 254.991,193.461 254.376,193.395 254.645 M323.073 274.197 C 323.436 274.525,323.824 274.765,323.934 274.730 C 324.044 274.695,325.084 275.352,326.245 276.190 C 327.406 277.028,329.167 278.228,330.160 278.857 C 331.152 279.486,332.228 280.240,332.551 280.533 C 332.874 280.827,333.708 281.547,334.404 282.133 C 336.305 283.735,339.911 287.229,339.911 287.468 C 339.911 287.584,340.271 288.032,340.711 288.464 C 342.651 290.369,344.934 295.225,345.410 298.456 C 345.646 300.060,344.963 304.000,344.449 304.000 C 344.258 304.000,344.194 304.240,344.306 304.533 C 344.419 304.827,344.347 305.067,344.146 305.067 C 343.945 305.067,343.879 305.227,344.000 305.422 C 344.121 305.618,344.050 305.778,343.843 305.778 C 343.636 305.778,343.467 306.018,343.467 306.311 C 343.467 306.604,343.317 306.844,343.135 306.844 C 342.953 306.844,342.693 307.204,342.558 307.644 C 341.848 309.952,341.096 309.941,338.728 307.584 C 334.207 303.086,329.898 298.998,330.150 299.447 C 330.293 299.702,329.188 298.653,327.694 297.116 C 326.200 295.578,324.978 294.415,324.978 294.530 C 324.978 294.645,324.098 293.874,323.022 292.815 C 321.947 291.757,321.067 290.976,321.067 291.080 C 321.067 291.184,320.557 290.693,319.935 289.990 C 319.312 289.287,318.582 288.711,318.314 288.711 C 318.045 288.711,317.924 288.551,318.044 288.356 C 318.165 288.160,318.005 288.000,317.689 288.000 C 317.372 288.000,317.202 287.858,317.309 287.683 C 317.417 287.509,317.066 287.080,316.530 286.730 C 315.994 286.380,314.516 285.095,313.244 283.875 C 311.973 282.655,310.006 280.795,308.874 279.742 C 306.103 277.165,306.289 276.698,310.701 275.139 C 315.000 273.620,321.858 273.098,323.073 274.197 M199.564 276.555 C 199.824 276.771,200.389 276.856,200.819 276.744 C 201.310 276.615,201.600 276.701,201.600 276.975 C 201.600 277.264,202.020 277.362,202.844 277.266 C 203.529 277.186,204.089 277.223,204.089 277.348 C 204.089 277.473,204.505 277.764,205.013 277.996 C 205.557 278.244,205.860 278.614,205.752 278.898 C 205.650 279.163,205.698 279.520,205.859 279.690 C 208.153 282.125,208.262 298.043,205.990 298.914 C 205.729 299.015,205.600 299.234,205.704 299.402 C 205.934 299.775,202.436 303.201,201.531 303.489 C 201.172 303.602,200.962 303.831,201.064 303.996 C 201.166 304.160,200.448 304.657,199.469 305.100 C 198.490 305.542,197.689 306.006,197.689 306.130 C 197.689 306.255,197.129 306.576,196.444 306.844 C 195.760 307.113,195.200 307.472,195.200 307.643 C 195.200 307.813,195.040 307.854,194.844 307.733 C 194.649 307.612,194.489 307.692,194.489 307.911 C 194.489 308.130,194.343 308.218,194.164 308.108 C 193.985 307.997,193.785 308.028,193.719 308.176 C 193.551 308.556,188.896 310.756,188.260 310.756 C 187.970 310.756,187.733 310.942,187.733 311.170 C 187.733 311.399,187.626 311.478,187.496 311.347 C 187.365 311.217,187.005 311.322,186.696 311.582 C 186.091 312.090,179.039 314.311,178.031 314.311 C 177.696 314.311,177.422 314.455,177.422 314.631 C 177.422 314.807,176.858 314.951,176.168 314.951 C 175.478 314.951,174.711 315.120,174.463 315.326 C 174.215 315.531,173.504 315.636,172.882 315.557 C 172.261 315.478,171.679 315.534,171.588 315.681 C 171.309 316.133,168.533 316.159,168.533 315.710 C 168.533 315.485,168.291 315.395,167.995 315.508 C 167.002 315.889,163.202 313.162,163.200 312.068 C 163.200 311.910,163.040 311.879,162.844 312.000 C 162.649 312.121,162.489 311.995,162.489 311.721 C 162.489 311.446,162.175 310.937,161.792 310.591 C 161.409 310.244,161.114 309.859,161.138 309.735 C 161.162 309.612,160.998 309.067,160.774 308.524 C 159.263 304.865,159.975 298.481,162.332 294.568 C 163.005 293.450,163.556 292.395,163.556 292.224 C 163.556 292.052,163.681 291.911,163.834 291.911 C 163.988 291.911,164.387 291.448,164.721 290.882 C 165.055 290.316,165.850 289.292,166.487 288.607 C 167.123 287.921,167.804 287.179,168.000 286.957 C 168.771 286.084,171.609 283.676,172.533 283.111 C 173.071 282.782,173.511 282.388,173.511 282.234 C 173.511 282.081,173.791 281.955,174.133 281.955 C 174.476 281.955,175.385 281.395,176.153 280.711 C 176.922 280.027,177.833 279.467,178.177 279.467 C 178.521 279.467,178.901 279.307,179.022 279.111 C 179.143 278.916,179.553 278.756,179.932 278.756 C 180.312 278.756,180.622 278.596,180.622 278.400 C 180.622 278.204,180.888 278.044,181.213 278.044 C 181.836 278.044,185.279 277.097,186.489 276.593 C 187.809 276.042,188.962 275.961,194.034 276.062 C 197.052 276.122,199.281 276.321,199.564 276.555 M300.941 287.431 C 301.744 288.095,302.949 289.135,303.620 289.742 C 304.290 290.348,304.930 290.845,305.042 290.846 C 305.153 290.847,305.756 291.327,306.381 291.913 C 307.006 292.499,307.664 292.978,307.844 292.978 C 308.023 292.978,309.103 293.859,310.242 294.937 C 312.143 296.735,313.115 297.526,314.606 298.489 C 314.908 298.684,315.693 299.317,316.349 299.894 C 317.006 300.471,317.870 301.191,318.271 301.494 C 318.672 301.797,319.378 302.404,319.839 302.844 C 320.301 303.284,320.782 303.644,320.908 303.644 C 321.034 303.644,321.593 304.084,322.150 304.622 C 323.718 306.135,324.550 306.798,324.697 306.651 C 324.771 306.577,325.524 307.151,326.372 307.925 C 327.219 308.700,328.061 309.333,328.244 309.333 C 328.426 309.333,328.476 309.493,328.356 309.689 C 328.235 309.884,328.374 310.044,328.665 310.044 C 328.956 310.044,329.767 310.585,330.468 311.246 C 331.168 311.907,332.299 312.827,332.980 313.290 C 334.379 314.244,334.553 314.869,333.511 315.200 C 333.120 315.324,332.800 315.582,332.800 315.773 C 332.800 315.964,332.600 316.081,332.356 316.032 C 332.111 315.984,331.422 316.205,330.824 316.524 C 329.444 317.259,324.616 319.001,323.911 319.018 C 323.618 319.025,323.185 319.182,322.949 319.368 C 322.713 319.554,322.353 319.602,322.149 319.476 C 321.945 319.350,321.778 319.416,321.778 319.623 C 321.778 319.831,321.658 319.969,321.511 319.932 C 321.364 319.894,320.364 320.065,319.289 320.311 C 313.080 321.729,299.465 322.317,297.818 321.238 C 294.880 319.313,293.269 306.112,295.042 298.489 C 295.270 297.511,295.525 296.231,295.610 295.644 C 295.695 295.058,295.789 294.578,295.819 294.578 C 295.850 294.578,295.939 294.240,296.017 293.826 C 296.095 293.413,296.349 292.613,296.581 292.048 C 296.814 291.484,296.978 290.902,296.946 290.756 C 296.915 290.609,297.027 290.489,297.197 290.489 C 297.366 290.489,297.855 289.529,298.283 288.356 C 299.196 285.851,299.082 285.890,300.941 287.431 " stroke="none" fill="#9c0404" fill-rule="evenodd"></path><path id="path1" d="M36.013 33.867 C 36.340 34.111,36.862 34.631,37.174 35.022 C 37.486 35.413,37.625 35.493,37.483 35.200 C 37.071 34.348,36.188 33.422,35.788 33.422 C 35.585 33.422,35.687 33.622,36.013 33.867 M73.230 70.844 C 74.703 72.414,75.022 72.697,75.022 72.430 C 75.022 72.373,74.262 71.613,73.333 70.741 L 71.644 69.156 73.230 70.844 M340.422 82.933 L 339.378 84.089 340.620 83.022 C 341.304 82.436,341.931 81.916,342.013 81.867 C 342.095 81.818,342.006 81.778,341.815 81.778 C 341.623 81.778,340.996 82.298,340.422 82.933 M245.416 112.000 C 245.416 112.684,245.489 112.964,245.578 112.622 C 245.668 112.280,245.668 111.720,245.578 111.378 C 245.489 111.036,245.416 111.316,245.416 112.000 M59.293 117.229 C 59.735 117.314,60.375 117.311,60.715 117.222 C 61.055 117.133,60.693 117.063,59.911 117.067 C 59.129 117.071,58.851 117.144,59.293 117.229 M155.637 138.568 C 156.268 138.646,157.388 138.648,158.125 138.571 C 158.863 138.494,158.347 138.429,156.978 138.428 C 155.609 138.426,155.005 138.489,155.637 138.568 M165.067 138.566 C 165.604 138.647,166.484 138.647,167.022 138.566 C 167.560 138.484,167.120 138.418,166.044 138.418 C 164.969 138.418,164.529 138.484,165.067 138.566 M169.517 138.569 C 170.157 138.648,171.117 138.646,171.651 138.565 C 172.185 138.484,171.662 138.419,170.489 138.421 C 169.316 138.423,168.878 138.490,169.517 138.569 M177.340 138.569 C 177.979 138.648,178.939 138.646,179.473 138.565 C 180.007 138.484,179.484 138.419,178.311 138.421 C 177.138 138.423,176.701 138.490,177.340 138.569 M187.467 138.556 C 187.809 138.646,188.369 138.646,188.711 138.556 C 189.053 138.467,188.773 138.394,188.089 138.394 C 187.404 138.394,187.124 138.467,187.467 138.556 M323.556 181.185 C 323.059 181.460,322.902 181.676,323.200 181.672 C 323.493 181.669,324.044 181.431,324.424 181.144 C 325.279 180.497,324.751 180.522,323.556 181.185 M142.443 200.089 C 142.778 201.485,142.933 201.532,142.933 200.237 C 142.933 199.618,142.770 199.111,142.571 199.111 C 142.356 199.111,142.304 199.508,142.443 200.089 M142.697 206.933 C 142.697 208.400,142.760 209.000,142.837 208.267 C 142.913 207.533,142.913 206.333,142.837 205.600 C 142.760 204.867,142.697 205.467,142.697 206.933 M86.138 218.211 C 86.679 218.292,87.479 218.290,87.916 218.206 C 88.353 218.121,87.911 218.055,86.933 218.057 C 85.956 218.060,85.598 218.129,86.138 218.211 M47.327 279.843 C 46.860 280.232,46.552 280.626,46.645 280.719 C 46.737 280.811,47.187 280.487,47.646 279.999 C 48.643 278.937,48.500 278.866,47.327 279.843 M308.068 293.522 C 308.448 293.810,308.918 294.044,309.114 294.044 C 309.309 294.044,309.159 293.810,308.779 293.522 C 308.399 293.235,307.929 293.000,307.733 293.000 C 307.538 293.000,307.688 293.235,308.068 293.522 M142.070 296.381 C 141.939 296.902,141.901 297.397,141.984 297.481 C 142.068 297.565,142.244 297.207,142.375 296.686 C 142.505 296.165,142.544 295.670,142.460 295.586 C 142.376 295.502,142.201 295.860,142.070 296.381 M253.083 313.623 C 253.168 314.202,253.350 314.745,253.488 314.830 C 253.625 314.915,253.668 314.511,253.584 313.932 C 253.499 313.354,253.317 312.811,253.179 312.726 C 253.041 312.640,252.998 313.044,253.083 313.623 M168.978 315.978 C 169.320 316.068,169.880 316.068,170.222 315.978 C 170.564 315.889,170.284 315.816,169.600 315.816 C 168.916 315.816,168.636 315.889,168.978 315.978 " stroke="none" fill="#a00404" fill-rule="evenodd"></path><path id="path2" d="M36.013 33.867 C 36.340 34.111,36.862 34.631,37.174 35.022 C 37.486 35.413,37.625 35.493,37.483 35.200 C 37.071 34.348,36.188 33.422,35.788 33.422 C 35.585 33.422,35.687 33.622,36.013 33.867 M73.230 70.844 C 74.703 72.414,75.022 72.697,75.022 72.430 C 75.022 72.373,74.262 71.613,73.333 70.741 L 71.644 69.156 73.230 70.844 M340.422 82.933 L 339.378 84.089 340.620 83.022 C 341.304 82.436,341.931 81.916,342.013 81.867 C 342.095 81.818,342.006 81.778,341.815 81.778 C 341.623 81.778,340.996 82.298,340.422 82.933 M245.416 112.000 C 245.416 112.684,245.489 112.964,245.578 112.622 C 245.668 112.280,245.668 111.720,245.578 111.378 C 245.489 111.036,245.416 111.316,245.416 112.000 M59.293 117.229 C 59.735 117.314,60.375 117.311,60.715 117.222 C 61.055 117.133,60.693 117.063,59.911 117.067 C 59.129 117.071,58.851 117.144,59.293 117.229 M155.637 138.568 C 156.268 138.646,157.388 138.648,158.125 138.571 C 158.863 138.494,158.347 138.429,156.978 138.428 C 155.609 138.426,155.005 138.489,155.637 138.568 M165.067 138.566 C 165.604 138.647,166.484 138.647,167.022 138.566 C 167.560 138.484,167.120 138.418,166.044 138.418 C 164.969 138.418,164.529 138.484,165.067 138.566 M169.517 138.569 C 170.157 138.648,171.117 138.646,171.651 138.565 C 172.185 138.484,171.662 138.419,170.489 138.421 C 169.316 138.423,168.878 138.490,169.517 138.569 M177.340 138.569 C 177.979 138.648,178.939 138.646,179.473 138.565 C 180.007 138.484,179.484 138.419,178.311 138.421 C 177.138 138.423,176.701 138.490,177.340 138.569 M187.467 138.556 C 187.809 138.646,188.369 138.646,188.711 138.556 C 189.053 138.467,188.773 138.394,188.089 138.394 C 187.404 138.394,187.124 138.467,187.467 138.556 M323.556 181.185 C 323.059 181.460,322.902 181.676,323.200 181.672 C 323.493 181.669,324.044 181.431,324.424 181.144 C 325.279 180.497,324.751 180.522,323.556 181.185 M142.443 200.089 C 142.778 201.485,142.933 201.532,142.933 200.237 C 142.933 199.618,142.770 199.111,142.571 199.111 C 142.356 199.111,142.304 199.508,142.443 200.089 M142.697 206.933 C 142.697 208.400,142.760 209.000,142.837 208.267 C 142.913 207.533,142.913 206.333,142.837 205.600 C 142.760 204.867,142.697 205.467,142.697 206.933 M86.138 218.211 C 86.679 218.292,87.479 218.290,87.916 218.206 C 88.353 218.121,87.911 218.055,86.933 218.057 C 85.956 218.060,85.598 218.129,86.138 218.211 M47.327 279.843 C 46.860 280.232,46.552 280.626,46.645 280.719 C 46.737 280.811,47.187 280.487,47.646 279.999 C 48.643 278.937,48.500 278.866,47.327 279.843 M308.068 293.522 C 308.448 293.810,308.918 294.044,309.114 294.044 C 309.309 294.044,309.159 293.810,308.779 293.522 C 308.399 293.235,307.929 293.000,307.733 293.000 C 307.538 293.000,307.688 293.235,308.068 293.522 M142.070 296.381 C 141.939 296.902,141.901 297.397,141.984 297.481 C 142.068 297.565,142.244 297.207,142.375 296.686 C 142.505 296.165,142.544 295.670,142.460 295.586 C 142.376 295.502,142.201 295.860,142.070 296.381 M253.083 313.623 C 253.168 314.202,253.350 314.745,253.488 314.830 C 253.625 314.915,253.668 314.511,253.584 313.932 C 253.499 313.354,253.317 312.811,253.179 312.726 C 253.041 312.640,252.998 313.044,253.083 313.623 M168.978 315.978 C 169.320 316.068,169.880 316.068,170.222 315.978 C 170.564 315.889,170.284 315.816,169.600 315.816 C 168.916 315.816,168.636 315.889,168.978 315.978 " stroke="none" fill="#a00404" fill-rule="evenodd"></path><path id="path3" d="M36.013 33.867 C 36.340 34.111,36.862 34.631,37.174 35.022 C 37.486 35.413,37.625 35.493,37.483 35.200 C 37.071 34.348,36.188 33.422,35.788 33.422 C 35.585 33.422,35.687 33.622,36.013 33.867 M73.230 70.844 C 74.703 72.414,75.022 72.697,75.022 72.430 C 75.022 72.373,74.262 71.613,73.333 70.741 L 71.644 69.156 73.230 70.844 M340.422 82.933 L 339.378 84.089 340.620 83.022 C 341.304 82.436,341.931 81.916,342.013 81.867 C 342.095 81.818,342.006 81.778,341.815 81.778 C 341.623 81.778,340.996 82.298,340.422 82.933 M245.416 112.000 C 245.416 112.684,245.489 112.964,245.578 112.622 C 245.668 112.280,245.668 111.720,245.578 111.378 C 245.489 111.036,245.416 111.316,245.416 112.000 M59.293 117.229 C 59.735 117.314,60.375 117.311,60.715 117.222 C 61.055 117.133,60.693 117.063,59.911 117.067 C 59.129 117.071,58.851 117.144,59.293 117.229 M155.637 138.568 C 156.268 138.646,157.388 138.648,158.125 138.571 C 158.863 138.494,158.347 138.429,156.978 138.428 C 155.609 138.426,155.005 138.489,155.637 138.568 M165.067 138.566 C 165.604 138.647,166.484 138.647,167.022 138.566 C 167.560 138.484,167.120 138.418,166.044 138.418 C 164.969 138.418,164.529 138.484,165.067 138.566 M169.517 138.569 C 170.157 138.648,171.117 138.646,171.651 138.565 C 172.185 138.484,171.662 138.419,170.489 138.421 C 169.316 138.423,168.878 138.490,169.517 138.569 M177.340 138.569 C 177.979 138.648,178.939 138.646,179.473 138.565 C 180.007 138.484,179.484 138.419,178.311 138.421 C 177.138 138.423,176.701 138.490,177.340 138.569 M187.467 138.556 C 187.809 138.646,188.369 138.646,188.711 138.556 C 189.053 138.467,188.773 138.394,188.089 138.394 C 187.404 138.394,187.124 138.467,187.467 138.556 M323.556 181.185 C 323.059 181.460,322.902 181.676,323.200 181.672 C 323.493 181.669,324.044 181.431,324.424 181.144 C 325.279 180.497,324.751 180.522,323.556 181.185 M142.443 200.089 C 142.778 201.485,142.933 201.532,142.933 200.237 C 142.933 199.618,142.770 199.111,142.571 199.111 C 142.356 199.111,142.304 199.508,142.443 200.089 M142.697 206.933 C 142.697 208.400,142.760 209.000,142.837 208.267 C 142.913 207.533,142.913 206.333,142.837 205.600 C 142.760 204.867,142.697 205.467,142.697 206.933 M86.138 218.211 C 86.679 218.292,87.479 218.290,87.916 218.206 C 88.353 218.121,87.911 218.055,86.933 218.057 C 85.956 218.060,85.598 218.129,86.138 218.211 M47.327 279.843 C 46.860 280.232,46.552 280.626,46.645 280.719 C 46.737 280.811,47.187 280.487,47.646 279.999 C 48.643 278.937,48.500 278.866,47.327 279.843 M308.068 293.522 C 308.448 293.810,308.918 294.044,309.114 294.044 C 309.309 294.044,309.159 293.810,308.779 293.522 C 308.399 293.235,307.929 293.000,307.733 293.000 C 307.538 293.000,307.688 293.235,308.068 293.522 M142.070 296.381 C 141.939 296.902,141.901 297.397,141.984 297.481 C 142.068 297.565,142.244 297.207,142.375 296.686 C 142.505 296.165,142.544 295.670,142.460 295.586 C 142.376 295.502,142.201 295.860,142.070 296.381 M253.083 313.623 C 253.168 314.202,253.350 314.745,253.488 314.830 C 253.625 314.915,253.668 314.511,253.584 313.932 C 253.499 313.354,253.317 312.811,253.179 312.726 C 253.041 312.640,252.998 313.044,253.083 313.623 M168.978 315.978 C 169.320 316.068,169.880 316.068,170.222 315.978 C 170.564 315.889,170.284 315.816,169.600 315.816 C 168.916 315.816,168.636 315.889,168.978 315.978 " stroke="none" fill="#a00404" fill-rule="evenodd"></path><path id="path4" d="M36.013 33.867 C 36.340 34.111,36.862 34.631,37.174 35.022 C 37.486 35.413,37.625 35.493,37.483 35.200 C 37.071 34.348,36.188 33.422,35.788 33.422 C 35.585 33.422,35.687 33.622,36.013 33.867 M73.230 70.844 C 74.703 72.414,75.022 72.697,75.022 72.430 C 75.022 72.373,74.262 71.613,73.333 70.741 L 71.644 69.156 73.230 70.844 M340.422 82.933 L 339.378 84.089 340.620 83.022 C 341.304 82.436,341.931 81.916,342.013 81.867 C 342.095 81.818,342.006 81.778,341.815 81.778 C 341.623 81.778,340.996 82.298,340.422 82.933 M245.416 112.000 C 245.416 112.684,245.489 112.964,245.578 112.622 C 245.668 112.280,245.668 111.720,245.578 111.378 C 245.489 111.036,245.416 111.316,245.416 112.000 M59.293 117.229 C 59.735 117.314,60.375 117.311,60.715 117.222 C 61.055 117.133,60.693 117.063,59.911 117.067 C 59.129 117.071,58.851 117.144,59.293 117.229 M155.637 138.568 C 156.268 138.646,157.388 138.648,158.125 138.571 C 158.863 138.494,158.347 138.429,156.978 138.428 C 155.609 138.426,155.005 138.489,155.637 138.568 M165.067 138.566 C 165.604 138.647,166.484 138.647,167.022 138.566 C 167.560 138.484,167.120 138.418,166.044 138.418 C 164.969 138.418,164.529 138.484,165.067 138.566 M169.517 138.569 C 170.157 138.648,171.117 138.646,171.651 138.565 C 172.185 138.484,171.662 138.419,170.489 138.421 C 169.316 138.423,168.878 138.490,169.517 138.569 M177.340 138.569 C 177.979 138.648,178.939 138.646,179.473 138.565 C 180.007 138.484,179.484 138.419,178.311 138.421 C 177.138 138.423,176.701 138.490,177.340 138.569 M187.467 138.556 C 187.809 138.646,188.369 138.646,188.711 138.556 C 189.053 138.467,188.773 138.394,188.089 138.394 C 187.404 138.394,187.124 138.467,187.467 138.556 M323.556 181.185 C 323.059 181.460,322.902 181.676,323.200 181.672 C 323.493 181.669,324.044 181.431,324.424 181.144 C 325.279 180.497,324.751 180.522,323.556 181.185 M142.443 200.089 C 142.778 201.485,142.933 201.532,142.933 200.237 C 142.933 199.618,142.770 199.111,142.571 199.111 C 142.356 199.111,142.304 199.508,142.443 200.089 M142.697 206.933 C 142.697 208.400,142.760 209.000,142.837 208.267 C 142.913 207.533,142.913 206.333,142.837 205.600 C 142.760 204.867,142.697 205.467,142.697 206.933 M86.138 218.211 C 86.679 218.292,87.479 218.290,87.916 218.206 C 88.353 218.121,87.911 218.055,86.933 218.057 C 85.956 218.060,85.598 218.129,86.138 218.211 M47.327 279.843 C 46.860 280.232,46.552 280.626,46.645 280.719 C 46.737 280.811,47.187 280.487,47.646 279.999 C 48.643 278.937,48.500 278.866,47.327 279.843 M308.068 293.522 C 308.448 293.810,308.918 294.044,309.114 294.044 C 309.309 294.044,309.159 293.810,308.779 293.522 C 308.399 293.235,307.929 293.000,307.733 293.000 C 307.538 293.000,307.688 293.235,308.068 293.522 M142.070 296.381 C 141.939 296.902,141.901 297.397,141.984 297.481 C 142.068 297.565,142.244 297.207,142.375 296.686 C 142.505 296.165,142.544 295.670,142.460 295.586 C 142.376 295.502,142.201 295.860,142.070 296.381 M253.083 313.623 C 253.168 314.202,253.350 314.745,253.488 314.830 C 253.625 314.915,253.668 314.511,253.584 313.932 C 253.499 313.354,253.317 312.811,253.179 312.726 C 253.041 312.640,252.998 313.044,253.083 313.623 M168.978 315.978 C 169.320 316.068,169.880 316.068,170.222 315.978 C 170.564 315.889,170.284 315.816,169.600 315.816 C 168.916 315.816,168.636 315.889,168.978 315.978 " stroke="none" fill="#a00404" fill-rule="evenodd"></path></g></svg>